<svg width="24" height="24" viewBox="0 0 24 24" fill="none" xmlns="http://www.w3.org/2000/svg">
<path d="M12 14.5L11.4697 15.0303C11.7626 15.3232 12.2374 15.3232 12.5303 15.0303L12 14.5ZM7.53033 8.96967C7.23744 8.67678 6.76256 8.67678 6.46967 8.96967C6.17678 9.26256 6.17678 9.73744 6.46967 10.0303L7.53033 8.96967ZM14.5 12L15.0303 12.5303L15.0303 12.5303L14.5 12ZM17.5303 10.0303C17.8232 9.73744 17.8232 9.26256 17.5303 8.96967C17.2374 8.67678 16.7626 8.67678 16.4697 8.96967L17.5303 10.0303ZM12.5303 13.9697L7.53033 8.96967L6.46967 10.0303L11.4697 15.0303L12.5303 13.9697ZM12.5303 15.0303L15.0303 12.5303L13.9697 11.4697L11.4697 13.9697L12.5303 15.0303ZM15.0303 12.5303L17.5303 10.0303L16.4697 8.96967L13.9697 11.4697L15.0303 12.5303Z" fill="#2B66FF"/>
<path d="M12 14.5L11.4697 15.0303C11.7626 15.3232 12.2374 15.3232 12.5303 15.0303L12 14.5ZM7.53033 8.96967C7.23744 8.67678 6.76256 8.67678 6.46967 8.96967C6.17678 9.26256 6.17678 9.73744 6.46967 10.0303L7.53033 8.96967ZM15.0303 12.5303C15.3232 12.2374 15.3232 11.7626 15.0303 11.4697C14.7374 11.1768 14.2626 11.1768 13.9697 11.4697L15.0303 12.5303ZM12.5303 13.9697L7.53033 8.96967L6.46967 10.0303L11.4697 15.0303L12.5303 13.9697ZM12.5303 15.0303L15.0303 12.5303L13.9697 11.4697L11.4697 13.9697L12.5303 15.0303Z" fill="black"/>
</svg>
