<svg width="118" height="118" viewBox="0 0 118 118" fill="none" xmlns="http://www.w3.org/2000/svg">
<path d="M3.47021 17.4238V91.8037C3.47021 95.198 6.23626 97.9641 9.63049 97.9641H108.37C111.763 97.9641 114.529 95.198 114.529 91.8037V17.4238H3.47021Z" fill="#2B66FF"/>
<path d="M114.53 27.2221V9.89172C114.53 6.49749 111.762 3.73145 108.369 3.73145H9.62918C6.23675 3.73145 3.4707 6.49749 3.4707 9.89172V27.2221H114.53Z" fill="black"/>
<path d="M21.0975 16.214C21.0975 18.85 18.9527 20.993 16.3185 20.993C13.6704 20.993 11.5273 18.85 11.5273 16.214C11.5273 13.5677 13.6704 11.4229 16.3185 11.4229C18.9527 11.4229 21.0975 13.5677 21.0975 16.214Z" fill="white"/>
<path d="M36.5179 16.214C36.5179 18.85 34.3731 20.993 31.7389 20.993C29.0908 20.993 26.9478 18.85 26.9478 16.214C26.9478 13.5677 29.0908 11.4229 31.7389 11.4229C34.3731 11.4229 36.5179 13.5677 36.5179 16.214Z" fill="white"/>
<path d="M51.9383 16.214C51.9383 18.85 49.7935 20.993 47.1593 20.993C44.5112 20.993 42.3682 18.85 42.3682 16.214C42.3682 13.5677 44.5112 11.4229 47.1593 11.4229C49.7935 11.4229 51.9383 13.5677 51.9383 16.214Z" fill="white"/>
<path d="M20.3936 75.6498C20.3936 96.987 37.6753 114.269 58.9847 114.269C80.3219 114.269 97.6037 96.987 97.6037 75.6498C97.6037 54.3404 80.3219 37.0586 58.9847 37.0586C37.6753 37.0586 20.3936 54.3404 20.3936 75.6498Z" fill="black"/>
<path d="M28.1396 75.6496C28.1396 92.2321 41.1994 105.74 57.5858 106.439C57.893 106.439 58.2296 106.467 58.5367 106.467H58.9289C59.3749 106.467 59.8226 106.467 60.272 106.439C76.6862 105.74 89.746 92.2321 89.746 75.6496C89.746 59.0932 76.6862 45.5875 60.272 44.8881C59.8226 44.8604 59.3749 44.8604 58.9289 44.8604H58.4812C58.1741 44.8604 57.893 44.8881 57.5858 44.8881C41.1994 45.5875 28.1396 59.0932 28.1396 75.6496Z" fill="white"/>
<path d="M57.5864 44.8871V47.9916C57.5864 48.1599 57.6142 48.3265 57.6974 48.4671C57.6974 48.5226 57.6974 48.5504 57.727 48.5781C57.7825 48.7187 57.8657 48.8297 57.9785 48.9425C58.0896 49.0536 58.2302 49.1664 58.3968 49.2219C58.5651 49.3052 58.7334 49.3347 58.9277 49.3347C59.2644 49.3347 59.5733 49.2219 59.7954 48.9981C59.8804 48.9425 59.9359 48.8592 59.9915 48.7742C60.0766 48.6909 60.1321 48.5781 60.1581 48.4671C60.1876 48.4393 60.2153 48.4115 60.1876 48.3838C60.2431 48.271 60.2709 48.1322 60.2709 47.9916V44.8871C59.8231 44.8594 59.3754 44.8594 58.9277 44.8594H58.4818C58.1729 44.8594 57.8935 44.8871 57.5864 44.8871Z" fill="#2B66FF"/>
<path d="M57.5864 103.334V106.438C57.8935 106.438 58.2302 106.466 58.5373 106.466H58.9277C59.3754 106.466 59.8231 106.466 60.2709 106.438V103.334C60.2709 102.579 59.6826 101.992 58.9277 101.992C58.789 101.992 58.6484 102.02 58.5373 102.075C58.5096 102.048 58.4818 102.075 58.4541 102.103C58.3968 102.103 58.3413 102.103 58.3134 102.159C58.2006 102.187 58.1174 102.244 58.0341 102.355C58.0063 102.355 57.9785 102.383 57.9491 102.41C57.8657 102.495 57.7825 102.606 57.7547 102.719C57.6974 102.775 57.6974 102.83 57.6697 102.886C57.6142 103.026 57.5864 103.165 57.5864 103.334Z" fill="#2B66FF"/>
<path d="M89.7191 74.8232H86.6147C86.4463 74.8232 86.2797 74.851 86.1391 74.9343C86.0819 74.9343 86.0559 74.9343 86.0281 74.9638C85.8876 75.0193 85.7748 75.1026 85.6637 75.2154C85.5509 75.3265 85.4399 75.467 85.3826 75.6336C85.2992 75.802 85.2715 75.9703 85.2715 76.1646C85.2715 76.5013 85.3826 76.8084 85.6064 77.0323C85.6637 77.1156 85.747 77.1728 85.832 77.2284C85.9153 77.3134 86.0281 77.3689 86.1391 77.395C86.1669 77.4245 86.1947 77.4522 86.2225 77.4245C86.3353 77.48 86.474 77.5078 86.6147 77.5078H89.7191C89.7469 77.06 89.7469 76.6123 89.7469 76.1646V75.7187C89.7469 75.4098 89.7191 75.1304 89.7191 74.8232Z" fill="#2B66FF"/>
<path d="M31.2715 74.8232H28.167C28.167 75.1304 28.1392 75.467 28.1392 75.7742V76.1646C28.1392 76.6123 28.1392 77.06 28.167 77.5078H31.2715C32.0263 77.5078 32.6128 76.9195 32.6128 76.1646C32.6128 76.0258 32.585 75.8853 32.5295 75.7742C32.5589 75.7464 32.5295 75.7187 32.5018 75.6909C32.5018 75.6336 32.5018 75.5781 32.4462 75.5503C32.4184 75.4375 32.3612 75.3543 32.2501 75.271C32.2501 75.2432 32.2224 75.2154 32.1946 75.1859C32.1096 75.1026 31.9985 75.0193 31.8857 74.9916C31.8302 74.9343 31.7747 74.9343 31.7192 74.9065C31.5785 74.851 31.4398 74.8232 31.2715 74.8232Z" fill="#2B66FF"/>
<path d="M38.1866 98.3728L40.3817 96.1776C40.4996 96.0596 40.5986 95.9208 40.6385 95.7629C40.6784 95.723 40.6975 95.7039 40.6975 95.664C40.7565 95.5252 40.7774 95.3864 40.7774 95.2284C40.7774 95.0705 40.7565 94.8935 40.6784 94.7339C40.6194 94.5569 40.5205 94.418 40.3817 94.2792C40.144 94.0415 39.8489 93.9044 39.5314 93.9044C39.4325 93.8853 39.3335 93.9044 39.2346 93.9235C39.1166 93.9235 38.9969 93.9634 38.898 94.0224C38.8598 94.0224 38.82 94.0224 38.82 94.0623C38.7002 94.1022 38.5822 94.1803 38.4833 94.2792L36.2881 96.4744C36.5849 96.811 36.9007 97.1268 37.2182 97.4427L37.5341 97.7602C37.7528 97.9771 37.9697 98.1558 38.1866 98.3728Z" fill="#2B66FF"/>
<path d="M79.5147 57.0457L81.7097 54.8505C81.4911 54.6336 81.2742 54.3751 81.0573 54.1582L80.7796 53.8822C80.4639 53.5647 80.1462 53.2489 79.8113 52.9521L77.6162 55.1473C77.0817 55.6818 77.0817 56.5112 77.6162 57.0457C77.7151 57.1446 77.8331 57.2245 77.9529 57.2626C77.9529 57.3025 77.9928 57.3025 78.0309 57.3025C78.0709 57.3424 78.1108 57.3823 78.1698 57.3615C78.2687 57.4205 78.3676 57.4414 78.5047 57.4205C78.5255 57.4414 78.5654 57.4414 78.6053 57.4414C78.7233 57.4414 78.8621 57.4205 78.9611 57.3615C79.0391 57.3615 79.079 57.3216 79.138 57.3025C79.2769 57.2435 79.3966 57.1637 79.5147 57.0457Z" fill="#2B66FF"/>
<path d="M36.2886 54.8496L38.4836 57.0447C38.6016 57.1627 38.7405 57.2634 38.8984 57.3016C38.9383 57.3415 38.9574 57.3606 38.9973 57.3606C39.1362 57.4196 39.2749 57.4404 39.4328 57.4404C39.5908 57.4404 39.7677 57.4196 39.9275 57.3415C40.1044 57.2825 40.2433 57.1835 40.382 57.0447C40.6198 56.807 40.7569 56.512 40.7569 56.1945C40.776 56.0955 40.7569 55.9966 40.7378 55.8977C40.7378 55.7797 40.6979 55.66 40.6389 55.5628C40.6389 55.5229 40.6389 55.483 40.599 55.483C40.5591 55.3633 40.481 55.2453 40.382 55.1463L38.187 52.9512C37.8503 53.2479 37.5344 53.5637 37.2186 53.8813L36.9011 54.1971C36.6842 54.4157 36.5055 54.6327 36.2886 54.8496Z" fill="#2B66FF"/>
<path d="M77.6159 96.1781L79.811 98.3733C80.0279 98.1564 80.2864 97.9377 80.5033 97.7208L80.7793 97.4432C81.0969 97.1274 81.4127 96.8116 81.7094 96.4749L79.5143 94.2797C78.9798 93.7453 78.1504 93.7453 77.6159 94.2797C77.517 94.3787 77.4371 94.4966 77.399 94.6164C77.3591 94.6164 77.3591 94.6563 77.3591 94.6945C77.3191 94.7344 77.2792 94.7743 77.3001 94.8333C77.2411 94.9322 77.2202 95.0311 77.2411 95.1699C77.2202 95.1891 77.2202 95.2289 77.2202 95.2689C77.2202 95.3869 77.2411 95.5257 77.3001 95.6246C77.3001 95.7044 77.3399 95.7426 77.3591 95.8016C77.4181 95.9404 77.4978 96.0602 77.6159 96.1781Z" fill="#2B66FF"/>
<path d="M58.9309 77.863L39.3064 69.0946C38.6227 68.7874 38.2999 67.9978 38.5741 67.302C38.8482 66.6061 39.6274 66.24 40.3336 66.4916L60.6575 73.4866L58.9309 77.863Z" fill="#2C3033"/>
<path d="M56.7778 73.9551L76.7632 66.0404C77.459 65.768 78.2521 66.0872 78.5574 66.771C78.8629 67.4529 78.58 68.2668 77.9067 68.5948L58.7022 78.2482L56.7778 73.9551Z" fill="#2B66FF"/>
<path d="M55.4175 75.6611C55.4175 77.5595 56.9115 79.1056 58.7873 79.1855C58.8221 79.1855 58.862 79.1889 58.8966 79.1889H58.9418C58.9922 79.1889 59.0442 79.1889 59.0945 79.1855C60.9738 79.1056 62.468 77.5595 62.468 75.6611C62.468 73.7662 60.9738 72.22 59.0945 72.1402C59.0442 72.1367 58.9922 72.1367 58.9418 72.1367H58.8898C58.855 72.1367 58.8221 72.1402 58.7873 72.1402C56.9115 72.22 55.4175 73.7662 55.4175 75.6611Z" fill="black"/>
</svg>
