<svg width="50" height="50" viewBox="0 0 50 50" fill="none" xmlns="http://www.w3.org/2000/svg">
<g clip-path="url(#clip0_395_196)">
<path d="M50 25C50 29.9445 48.5338 34.778 45.7868 38.8893C43.0397 43.0005 39.1353 46.2048 34.5671 48.097C29.9989 49.9892 24.9723 50.4843 20.1228 49.5196C15.2732 48.555 10.8187 46.174 7.32234 42.6777C3.82603 39.1814 1.44501 34.7268 0.480379 29.8773C-0.484251 25.0277 0.010832 20.0011 1.90302 15.4329C3.79521 10.8648 6.99953 6.96029 11.1108 4.21326C15.222 1.46622 20.0555 0 25 0C31.6304 0 37.9893 2.63392 42.6777 7.32233C47.3661 12.0107 50 18.3696 50 25Z" fill="#F7931A"/>
<path fill-rule="evenodd" clip-rule="evenodd" d="M17.768 11.4157L23.5135 12.9543L24.7976 8.16797L27.6703 8.94751L26.4362 13.5362L28.7794 14.1657L30.0157 9.52706L32.9385 10.3089L31.6794 14.9725C31.6794 14.9725 36.4521 16.0293 37.5748 19.9112C38.6976 23.793 35.1066 25.8316 33.9976 25.9089C33.9976 25.9089 38.1794 28.2021 36.743 32.7134C35.3067 37.2248 30.8976 38.0316 26.2589 36.9975L24.9998 41.8339L22.0771 41.0521L23.3612 36.2907L21.043 35.6589L19.7589 40.4543L16.8589 39.6748L18.1453 34.9021L12.2476 33.3112L13.7339 30.0112C13.7339 30.0112 15.3976 30.4657 16.0271 30.6157C16.6566 30.7657 17.0612 30.1111 17.2385 29.4566C17.4157 28.8021 20.0862 17.9543 20.3385 17.0612C20.5907 16.168 20.4885 15.4702 19.4294 15.1952C18.3703 14.9202 16.9294 14.4907 16.9294 14.4907L17.768 11.4157ZM23.5635 25.7816L21.9726 32.1066C21.9726 32.1066 29.8612 34.9543 30.8703 30.9475C31.8794 26.9407 23.5635 25.7816 23.5635 25.7816ZM24.2953 22.7816L25.8566 16.9861C25.8566 16.9861 32.6112 18.1952 31.7794 21.4202C30.9476 24.6452 26.9657 23.4089 24.2953 22.7816Z" fill="white"/>
</g>
<defs>
<clipPath id="clip0_395_196">
<rect width="50" height="50" fill="white"/>
</clipPath>
</defs>
</svg>
