<svg width="118" height="118" viewBox="0 0 118 118" fill="none" xmlns="http://www.w3.org/2000/svg">
<path d="M109.345 54.5527C106.57 54.5527 104.323 52.3038 104.323 49.5308V32.7748C104.323 23.3366 96.646 15.6579 87.206 15.6579C77.7695 15.6579 70.0891 23.3366 70.0891 32.7748V49.5308C70.0891 52.3038 67.8418 54.5527 65.0671 54.5527C62.2959 54.5527 60.0469 52.3038 60.0469 49.5308V32.7748C60.0469 17.7992 72.2305 5.61572 87.206 5.61572C102.182 5.61572 114.367 17.7992 114.367 32.7748V49.5308C114.367 52.3038 112.118 54.5527 109.345 54.5527" fill="black"/>
<path d="M77.7456 112.384H16.5573C8.79712 112.384 2.76871 105.57 3.73528 97.8613L8.59758 58.9769C9.40273 52.5024 14.9123 47.6558 21.4231 47.6558H72.8798C79.4097 47.6558 84.9002 52.5024 85.7054 58.9769L90.5712 97.8613C91.5359 105.57 85.5249 112.384 77.7456 112.384" fill="#2B66FF"/>
<path d="M70.2994 80.4327C70.2994 93.2253 59.9431 103.58 47.1522 103.58C34.3596 103.58 24.0034 93.2253 24.0034 80.4327C24.0034 67.6402 34.3596 57.2856 47.1522 57.2856C59.9431 57.2856 70.2994 67.6402 70.2994 80.4327Z" fill="white"/>
<path d="M43.6564 89.9574C42.9223 89.9574 42.1865 89.6763 41.626 89.1158L35.3095 82.7993C34.1885 81.6783 34.1885 79.8597 35.3095 78.7387C36.4306 77.6177 38.2491 77.6177 39.3684 78.7387L43.6564 83.0249L54.934 71.7489C56.055 70.628 57.8736 70.628 58.9946 71.7489C60.1156 72.8699 60.1156 74.6885 58.9946 75.8095L45.6866 89.1158C45.1278 89.6763 44.392 89.9574 43.6564 89.9574" fill="black"/>
</svg>
