<svg width="24" height="24" viewBox="0 0 24 24" fill="none" xmlns="http://www.w3.org/2000/svg">
<path d="M2.42056 15.2806L3.14629 15.0913L2.42056 15.2806ZM2.42056 8.71942L3.14629 8.90868L2.42056 8.71942ZM21.5794 8.71943L20.8537 8.90869L21.5794 8.71943ZM21.5794 15.2806L20.8537 15.0913L21.5794 15.2806ZM15.6214 20.622L15.4666 19.8882H15.4666L15.6214 20.622ZM8.37858 20.622L8.22375 21.3559H8.22375L8.37858 20.622ZM8.37858 3.37798L8.22374 2.64414L8.37858 3.37798ZM15.6214 3.37798L15.7763 2.64414L15.7763 2.64414L15.6214 3.37798ZM7.87215 20.5152L8.02698 19.7813H8.02698L7.87215 20.5152ZM16.1278 20.5152L16.2827 21.249L16.1278 20.5152ZM16.1278 3.48483L15.973 4.21867L16.1278 3.48483ZM7.87215 3.48483L8.02698 4.21868L7.87215 3.48483ZM8.02698 4.21868L8.53341 4.11182L8.22374 2.64414L7.71731 2.75099L8.02698 4.21868ZM15.4666 4.11182L15.973 4.21867L16.2827 2.75099L15.7763 2.64414L15.4666 4.11182ZM15.973 19.7813L15.4666 19.8882L15.7763 21.3559L16.2827 21.249L15.973 19.7813ZM8.53342 19.8882L8.02698 19.7813L7.71732 21.249L8.22375 21.3559L8.53342 19.8882ZM3.14629 15.0913C2.6179 13.0652 2.61791 10.9348 3.14629 8.90868L1.69483 8.53017C1.10172 10.8045 1.10172 13.1955 1.69483 15.4698L3.14629 15.0913ZM20.8537 8.90869C21.3821 10.9348 21.3821 13.0652 20.8537 15.0913L22.3052 15.4698C22.8983 13.1955 22.8983 10.8045 22.3052 8.53018L20.8537 8.90869ZM15.4666 19.8882C13.1801 20.3706 10.8199 20.3706 8.53342 19.8882L8.22375 21.3559C10.7144 21.8814 13.2856 21.8814 15.7763 21.3559L15.4666 19.8882ZM8.53341 4.11182C10.8199 3.62939 13.1801 3.62939 15.4666 4.11182L15.7763 2.64414C13.2856 2.11862 10.7144 2.11862 8.22374 2.64414L8.53341 4.11182ZM8.02698 19.7813C5.65858 19.2816 3.76631 17.4689 3.14629 15.0913L1.69483 15.4698C2.45635 18.39 4.78516 20.6304 7.71732 21.249L8.02698 19.7813ZM16.2827 21.249C19.2148 20.6304 21.5436 18.39 22.3052 15.4698L20.8537 15.0913C20.2337 17.4689 18.3414 19.2816 15.973 19.7813L16.2827 21.249ZM15.973 4.21867C18.3414 4.71839 20.2337 6.53112 20.8537 8.90869L22.3052 8.53018C21.5436 5.60999 19.2148 3.36965 16.2827 2.75099L15.973 4.21867ZM7.71731 2.75099C4.78516 3.36965 2.45635 5.60998 1.69483 8.53017L3.14629 8.90868C3.76631 6.53111 5.65858 4.71839 8.02698 4.21868L7.71731 2.75099Z" fill="black"/>
<path d="M6 11.25C5.58579 11.25 5.25 11.5858 5.25 12C5.25 12.4142 5.58579 12.75 6 12.75V11.25ZM8 12L8.62404 11.584C8.48494 11.3753 8.25076 11.25 8 11.25V12ZM10 15L9.37596 15.416C9.51506 15.6247 9.74924 15.75 10 15.75C10.2508 15.75 10.4849 15.6247 10.624 15.416L10 15ZM14 9L14.624 8.58397C14.4849 8.37533 14.2508 8.25 14 8.25C13.7492 8.25 13.5151 8.37533 13.376 8.58397L14 9ZM16 12L15.376 12.416C15.5151 12.6247 15.7492 12.75 16 12.75V12ZM18 12.75C18.4142 12.75 18.75 12.4142 18.75 12C18.75 11.5858 18.4142 11.25 18 11.25V12.75ZM6 12.75H8V11.25H6V12.75ZM7.37596 12.416L9.37596 15.416L10.624 14.584L8.62404 11.584L7.37596 12.416ZM10.624 15.416L14.624 9.41603L13.376 8.58397L9.37596 14.584L10.624 15.416ZM13.376 9.41603L15.376 12.416L16.624 11.584L14.624 8.58397L13.376 9.41603ZM16 12.75H18V11.25H16V12.75Z" fill="#2B66FF"/>
</svg>
