<svg width="50" height="50" viewBox="0 0 50 50" fill="none" xmlns="http://www.w3.org/2000/svg">
<path d="M24.8535 0.117188C24.5898 0.166016 23.9941 0.380859 23.5449 0.595703C22.1094 1.29883 21.0547 2.58789 20.6543 4.15039C20.5371 4.61914 20.5078 5.49805 20.5078 8.98438V13.2324L13.0664 13.2031C7.92969 13.1836 5.46875 13.2129 5.11719 13.2812C3.75977 13.5645 2.58789 14.502 1.97266 15.791C1.61133 16.5527 1.61133 16.5625 1.58203 18.0273C1.54297 19.4336 1.55273 19.5215 1.74805 19.7168C1.875 19.8438 2.08008 19.9219 2.26562 19.9219C2.90039 19.9219 3.02734 19.6484 3.02734 18.2812C3.02734 17.5391 3.07617 17.0508 3.19336 16.6992C3.4082 16.0254 4.13086 15.2344 4.80469 14.9316L5.32227 14.6973L12.4414 14.668C20.2832 14.6387 20.2734 14.6387 21.1426 15.2344C21.6016 15.5469 22.041 16.123 22.2754 16.6992C22.3828 16.9824 22.4121 18.3398 22.4414 24.1309L22.4707 31.2305L21.3184 31.2695C20.3223 31.2988 20.0879 31.3477 19.5801 31.582C18.6523 32.002 17.998 32.7344 17.6367 33.75C17.5586 33.9844 17.1191 34.3848 15.8691 35.3516L14.209 36.6406L14.1602 35.5566C14.1211 34.5996 14.082 34.4531 13.8867 34.2578L13.6621 34.0332L9.39453 33.9844L5.12695 33.9355L4.59961 33.6426C3.95508 33.2812 3.47656 32.7441 3.22266 32.0605C3.03711 31.5625 3.02734 31.2988 3.02734 27.5C3.02734 23.5645 3.01758 23.457 2.82227 23.2031C2.56836 22.8809 2.05078 22.8516 1.75781 23.1445C1.57227 23.3301 1.5625 23.4668 1.5625 27.5293C1.5625 32.1094 1.58203 32.3145 2.17773 33.3203C2.53906 33.9453 3.42773 34.7363 4.13086 35.0684C5.00977 35.4688 5.75195 35.5371 9.45312 35.5469H12.6953V37.041C12.6953 38.6621 12.7246 38.75 13.252 38.9062C13.5449 39.0039 13.6621 38.9258 15.5957 37.4316C16.5332 36.709 17.3535 36.1035 17.4316 36.0742C17.5488 36.0254 17.5781 36.6797 17.5977 40.5957L17.627 45.166L17.9004 45.6836C18.2617 46.3672 18.8477 46.9336 19.5215 47.2559C20.0684 47.5098 20.0879 47.5098 22.7344 47.5391L25.3906 47.5684V48.4375C25.3906 48.916 25.4395 49.4141 25.498 49.541C25.6152 49.7949 25.957 50 26.25 50C26.3379 50 27.1191 49.4531 27.9883 48.7891L29.5508 47.5879L30.4297 47.5391C31.9141 47.4707 32.9199 46.8262 33.5059 45.5664C33.7305 45.0781 33.7988 44.7852 33.8379 43.9941C33.877 43.457 33.8574 42.8809 33.8184 42.7246C33.7012 42.334 33.1934 42.0703 32.8125 42.1973C32.4316 42.334 32.3242 42.6562 32.3242 43.6816C32.3145 45.4492 31.6406 46.0938 29.7754 46.0938H29.0234L28.0176 46.875C27.0215 47.6367 27.002 47.6465 26.9727 47.3828C26.9141 46.7383 26.8359 46.4648 26.6504 46.2793C26.4746 46.1035 26.3086 46.0938 23.6133 46.0938C21.9434 46.0938 20.5957 46.0547 20.3906 45.9961C19.9219 45.8594 19.4727 45.4785 19.2285 45.0098C19.043 44.6387 19.043 44.4434 19.0625 39.3262L19.0918 34.0234L19.3262 33.6719C19.4531 33.4863 19.7168 33.2227 19.9023 33.0957L20.2539 32.8613L25.5273 32.832L30.8105 32.8125L31.2402 33.0273C31.4844 33.1543 31.8164 33.418 31.9727 33.623L32.2754 34.0039L32.334 36.3574C32.3633 37.6562 32.3926 38.7305 32.4023 38.7402C32.4121 38.75 32.5391 38.8281 32.6953 38.9062C33.0273 39.0723 33.4277 39.0137 33.6621 38.75C33.8184 38.5742 33.8379 38.3398 33.8281 36.2891C33.8281 34.1602 33.8184 34.0039 33.5938 33.4473C33.2812 32.6562 32.4805 31.8457 31.709 31.5625C31.1719 31.3574 30.9961 31.3477 27.5391 31.3477H23.9258V29.4336C23.9258 27.6465 23.9355 27.5195 24.1016 27.5879C24.834 27.8809 25.6445 27.9297 29.8633 27.9297H34.1797V29.873V31.8262L34.4336 32.0215C34.5801 32.1387 34.7949 32.2266 34.9121 32.2266C35.0586 32.2266 36.1719 31.4355 37.9102 30.0977L40.6738 27.9785L42.334 27.9199C43.7793 27.8711 44.0918 27.8223 44.7168 27.6074C46.0449 27.1387 47.1777 26.1816 47.793 25C48.4668 23.7305 48.4473 24.0918 48.418 13.6426L48.3887 4.24805L48.1055 3.56445C47.5195 2.13867 46.5918 1.14258 45.2637 0.527344C44.3457 0.107422 43.6914 0 41.9727 0C40.6543 0 40.5078 0.0195312 40.332 0.195312C40.2148 0.3125 40.1367 0.517578 40.1367 0.732422C40.1367 0.947266 40.2148 1.15234 40.332 1.26953C40.5078 1.44531 40.6641 1.46484 41.9727 1.46484C42.7637 1.46484 43.6035 1.51367 43.8379 1.57227C45.0098 1.83594 46.0645 2.69531 46.6113 3.79883L46.9238 4.44336L46.9531 13.7109C46.9727 21.9824 46.9629 23.0371 46.8164 23.5254C46.4062 24.9707 45.166 26.084 43.6523 26.3672C43.3691 26.416 42.4902 26.4648 41.6895 26.4648H40.2539L37.9688 28.2129L35.6934 29.9512L35.6445 28.3984C35.5957 26.9043 35.5859 26.8262 35.3613 26.6504C35.1465 26.4746 34.9121 26.4648 30.4785 26.4648C25.6641 26.4648 25 26.4258 24.2969 26.0645L23.9258 25.8789V21.582C23.9258 18.8086 23.8867 17.1094 23.8184 16.7773C23.6426 15.9375 23.252 15.2344 22.5879 14.541L21.9629 13.8965L21.9922 9.16992L22.0215 4.44336L22.3438 3.78906C22.6953 3.06641 23.3203 2.37305 23.9551 2.00195C24.8535 1.48438 25.0684 1.46484 31.0254 1.46484C36.3965 1.46484 36.5234 1.46484 36.7188 1.26953C36.8359 1.15234 36.9141 0.947266 36.9141 0.732422C36.9141 0.517578 36.8359 0.3125 36.7188 0.195312C36.5234 0 36.3965 0 30.9375 0.00976562C27.8613 0.0195312 25.127 0.0585938 24.8535 0.117188Z" fill="black"/>
<path d="M35.2539 5.54687C34.7656 5.81055 34.4922 6.25976 34.4238 6.91406C34.3359 7.74414 34.1016 8.59375 33.8379 9.0332C33.7012 9.24805 33.1055 9.98047 32.5 10.6738C31.6699 11.6211 31.377 11.9043 31.2598 11.8457C31.1719 11.8066 30.0488 11.7578 28.7598 11.7383C26.4648 11.709 26.416 11.7187 26.25 11.9238C26.084 12.1191 26.0742 12.5 26.0742 16.8555C26.0742 21.4551 26.084 21.5918 26.2695 21.7773C26.4551 21.9629 26.5918 21.9727 28.7402 21.9727C30.8887 21.9727 31.0352 21.9629 31.2012 21.7773C31.3672 21.5918 31.377 21.5918 31.7285 21.7676C32.7246 22.2754 32.9004 22.2949 37.0703 22.3437C39.6777 22.3633 41.1133 22.3437 41.377 22.2754C41.9629 22.1191 42.4023 21.7773 42.6562 21.2891C42.8711 20.8594 42.8711 20.8105 42.8711 16.9336C42.8711 14.3945 42.832 12.9004 42.7637 12.7246C42.6172 12.334 42.207 11.9238 41.748 11.709C41.4062 11.5527 41.0938 11.5234 39.3652 11.5234C37.5098 11.5234 37.3828 11.5137 37.4512 11.3477C37.9492 10.1758 38.0859 8.92578 37.8516 7.82226C37.6465 6.8457 37.2168 5.94726 36.8164 5.66406C36.377 5.35156 35.7031 5.30273 35.2539 5.54687ZM36.4453 8.34961C36.582 9.15039 36.4551 9.87305 35.9473 11.1328C35.7227 11.6699 35.5469 12.207 35.5469 12.3145C35.5469 12.4219 35.6543 12.6172 35.791 12.7441L36.0254 12.9883H38.6035C40.4688 12.9883 41.2012 13.0176 41.2891 13.1055C41.4355 13.252 41.4551 20.4785 41.3086 20.7031C41.2305 20.8301 40.6738 20.8496 37.2852 20.8496C33.457 20.8398 33.3398 20.8398 32.8125 20.625C32.5098 20.5078 32.0801 20.2734 31.8555 20.1074L31.4453 19.8047V16.9531V14.0918L33.1445 12.168C34.9316 10.1367 35.4102 9.42383 35.6934 8.33984C35.7715 8.02734 35.8398 7.60742 35.8398 7.42187C35.8398 7.22656 35.8691 7.03125 35.918 6.99219C36.0254 6.875 36.3379 7.66601 36.4453 8.34961ZM29.9805 16.8457V20.5078H28.7598H27.5391V16.8457V13.1836H28.7598H29.9805V16.8457Z" fill="#296AF4"/>
<path d="M11.6504 18.9453C11.3281 19.0723 11.1719 19.4043 11.0449 20.2148C10.9863 20.6152 10.8887 21.2207 10.8301 21.5527L10.7227 22.168H9.14062C7.49023 22.1777 7.37304 22.207 7.13867 22.6367C7.01172 22.8809 7.07031 23.2031 7.30469 23.457C7.43164 23.6133 7.64648 23.6328 8.95508 23.6328C10.0879 23.6328 10.4492 23.6621 10.4492 23.75C10.4492 23.8184 10.4004 24.2187 10.332 24.6289L10.2246 25.3809L8.85742 25.4102C7.50976 25.4395 7.5 25.4395 7.26562 25.7129C6.95312 26.0742 6.97265 26.3184 7.31445 26.6699C7.59765 26.9531 7.60742 26.9531 8.77929 26.9531C9.96094 26.9531 9.96094 26.9531 9.91211 27.168C9.78515 27.7539 9.57031 29.1895 9.57031 29.4629C9.57031 29.9121 9.87304 30.1953 10.3223 30.1562C10.8594 30.1074 10.9961 29.834 11.2402 28.291L11.4551 26.9531H12.334H13.2129L13.1543 27.2168C13.125 27.373 13.0273 27.9687 12.9297 28.5449C12.7637 29.5898 12.7637 29.5996 12.959 29.8633C13.2715 30.2832 13.9746 30.2734 14.1699 29.8535C14.2187 29.7363 14.3652 29.043 14.4824 28.3203L14.707 27.002L16.3281 26.9531C18.1836 26.8945 18.3594 26.8262 18.3594 26.1719C18.3594 25.5176 18.1738 25.4395 16.4648 25.4102L14.9805 25.3809L15.1172 24.502L15.2637 23.6328H16.6113C17.8418 23.6328 17.9883 23.6133 18.1641 23.4375C18.457 23.1445 18.4277 22.627 18.1055 22.373C17.8711 22.1875 17.7148 22.168 16.6699 22.168H15.5078L15.5566 21.8945C15.8594 20.3223 15.9375 19.5117 15.8203 19.2871C15.5566 18.7988 14.8047 18.7598 14.5508 19.2383C14.4922 19.3555 14.3555 19.9609 14.248 20.5859C14.1504 21.2109 14.0332 21.8262 14.0137 21.9434C13.9648 22.1582 13.916 22.168 13.1348 22.168C12.168 22.168 12.2266 22.3047 12.5 20.7227C12.6855 19.6094 12.666 19.2969 12.3926 19.0723C12.1777 18.9062 11.8848 18.8574 11.6504 18.9453ZM13.6328 24.2383C13.5937 24.5801 13.5352 24.9707 13.5059 25.1172L13.457 25.3906H12.5879C12.1094 25.3906 11.7187 25.3809 11.7187 25.3613C11.7187 25.3516 11.7871 24.9707 11.8652 24.5117C11.9434 24.0527 12.0117 23.6719 12.0117 23.6523C12.0117 23.6426 12.3926 23.6328 12.8516 23.6328H13.7012L13.6328 24.2383Z" fill="#C256E8"/>
<path d="M23.3008 36.0938C22.6367 36.3086 21.8652 37.0898 21.6309 37.7832C21.3867 38.5352 21.4648 39.6387 21.8164 40.3613C22.2754 41.3086 23.457 42.3242 25.0684 43.1641L25.6738 43.4863L26.1914 43.2324C27.041 42.8125 28.1641 42.0312 28.7402 41.4551C29.5312 40.6641 29.8242 40.0098 29.873 38.9355C29.9023 38.1641 29.873 38.0273 29.6484 37.5488C28.9941 36.2207 27.4121 35.6348 26.1523 36.2598L25.6641 36.5039L25.2539 36.2695C24.7168 35.9668 23.916 35.8984 23.3008 36.0938ZM24.9609 37.959C25.2832 38.3105 25.4492 38.4082 25.6836 38.4082C25.918 38.4082 26.084 38.3105 26.4062 37.959C26.7773 37.5488 26.875 37.5 27.2363 37.5C27.5586 37.5 27.7148 37.5684 28.0078 37.832C28.3594 38.1641 28.3691 38.1836 28.3691 38.8477C28.3691 39.4531 28.3301 39.5801 28.0762 39.9609C27.7246 40.4492 26.8652 41.1621 26.1621 41.543L25.6738 41.8164L24.9707 41.3965C24.0527 40.8594 23.1934 40 23.0566 39.4922C22.7441 38.3594 23.1934 37.5 24.1016 37.5C24.5019 37.5 24.5801 37.5391 24.9609 37.959Z" fill="#ED4A4A"/>
</svg>
