<svg width="50" height="50" viewBox="0 0 50 50" fill="none" xmlns="http://www.w3.org/2000/svg">
<path d="M25 50C38.8071 50 50 38.8071 50 25C50 11.1929 38.8071 0 25 0C11.1929 0 0 11.1929 0 25C0 38.8071 11.1929 50 25 50Z" fill="#0F8FF8"/>
<path fill-rule="evenodd" clip-rule="evenodd" d="M12.5 29.6937L13.7656 26.5625H15.1047C15.07 26.0267 15.0523 25.49 15.0516 24.9531C15.0516 24.2531 15.0813 23.6031 15.1391 23H12.5L13.7656 19.8703H15.7562C17.6094 13.9156 21.7875 10.9375 28.2859 10.9375C30.4219 10.9375 32.4516 11.2141 34.375 11.7688V15.7125C32.5648 14.9036 30.6029 14.4903 28.6203 14.5C24.725 14.5 22.2203 16.2906 21.1047 19.8719H32.7031L31.4375 23.0016H20.3484C20.282 23.517 20.2528 24.0366 20.2609 24.5562C20.2609 25.3047 20.2844 25.9734 20.3313 26.5641H29.9922L28.7422 29.6937H21C21.8328 31.8641 22.8484 33.3734 24.0453 34.225C25.2406 35.075 26.9484 35.5 29.1656 35.5C30.75 35.5 32.4859 35.1141 34.375 34.3422V38.05C32.5797 38.725 30.4453 39.0625 27.9687 39.0625C21.4578 39.0625 17.3391 35.9391 15.6156 29.6937H12.5Z" fill="white"/>
</svg>
