<svg width="118" height="118" viewBox="0 0 118 118" fill="none" xmlns="http://www.w3.org/2000/svg">
<path d="M64.2597 92.619L77.2986 94.9999C80.8976 95.6558 82.4351 99.9628 80.0664 102.75L71.4837 112.853C69.115 115.641 64.6154 114.819 63.3868 111.372L62.5486 109.023L62.4601 109.03C39.2055 110.638 17.4379 96.1712 10.9896 73.7686C6.97066 59.8029 8.77533 45.6793 15.6176 33.9471C16.8445 31.8439 19.6348 31.2608 21.6165 32.6751L21.7033 32.7358C23.4941 34.013 24.0251 36.4129 22.9353 38.2974C19.3034 44.5635 17.3911 51.6436 17.3911 59.0116C17.3911 82.1188 36.3509 100.903 59.5223 100.617C59.5292 100.607 59.531 100.605 59.5397 100.593L58.9323 98.8939C57.7002 95.4476 60.6607 91.9631 64.2597 92.619Z" fill="black"/>
<path d="M109.125 59.0121C109.125 67.8587 106.831 76.379 102.472 83.9449C101.219 86.1175 98.3435 86.7265 96.301 85.2707C94.5327 84.0108 94 81.6144 95.0863 79.7351C98.7165 73.4602 100.61 66.3594 100.61 59.0121C100.61 35.905 81.6499 17.1204 58.4786 17.405C58.4699 17.4172 58.4699 17.4189 58.4612 17.4311L59.072 19.1421C60.3006 22.5797 57.3454 26.0572 53.7533 25.3995L40.6849 23.0014C37.0945 22.3419 35.564 18.0436 37.9309 15.2654L46.5588 5.13823C48.924 2.36175 53.4063 3.18602 54.6314 6.62018L55.48 9.00102C56.6444 8.91597 57.8365 8.88822 59.0009 8.88822C86.6441 8.88822 109.125 31.3672 109.125 59.0121Z" fill="#2B66FF"/>
<path d="M57.2017 8.91349C56.6342 8.94129 56.0425 8.9673 55.475 8.99335L55.4473 8.88574H55.8255C56.2837 8.88574 56.7435 8.88574 57.2017 8.91349Z" fill="#1C2021"/>
<path d="M85.9906 59.0005C85.9906 59.6981 85.9593 60.3975 85.8986 61.0846C85.4561 66.9707 83.1256 72.3207 79.5005 76.553C78.5965 77.6099 77.6108 78.5955 76.5523 79.4996C72.3216 83.1246 66.97 85.4568 61.0856 85.8976C60.3967 85.9601 59.6991 85.9913 58.9998 85.9913C58.3022 85.9913 57.6046 85.9601 56.9157 85.8976C51.0313 85.4568 45.6797 83.1246 41.4491 79.4996C40.3905 78.5955 39.4049 77.6099 38.5008 76.553C34.874 72.3207 32.5435 66.9707 32.1027 61.0846C32.0402 60.3975 32.0107 59.6981 32.0107 59.0005C32.0107 58.303 32.0402 57.6036 32.1027 56.9147C32.5435 51.0303 34.874 45.6804 38.5008 41.448C39.4049 40.3895 40.3905 39.4056 41.4491 38.5015C45.6797 34.8747 51.0313 32.5443 56.9157 32.1034C57.6046 32.041 58.3022 32.0098 58.9998 32.0098C59.6991 32.0098 60.3967 32.041 61.0856 32.1034C66.97 32.5443 72.3216 34.8747 76.5523 38.5015C77.6108 39.4056 78.5965 40.3895 79.5005 41.448C83.1256 45.6804 85.4561 51.0303 85.8986 56.9147C85.9593 57.6036 85.9906 58.303 85.9906 59.0005Z" fill="#FEBB50"/>
<path d="M85.9906 59.0005C85.9906 59.6981 85.9593 60.3975 85.8986 61.0846C85.4561 66.9707 83.1256 72.3207 79.5005 76.553C78.5965 77.6099 77.6108 78.5955 76.5523 79.4996C72.3216 83.1246 66.97 85.4568 61.0856 85.8976C60.3967 85.9601 59.6991 85.9913 58.9998 85.9913C58.3022 85.9913 57.6046 85.9601 56.9157 85.8976C51.0313 85.4568 45.6797 83.1246 41.4491 79.4996C40.3905 78.5955 39.4049 77.6099 38.5008 76.553C34.874 72.3207 32.5435 66.9707 32.1027 61.0846C32.0402 60.3975 32.0107 59.6981 32.0107 59.0005C32.0107 58.303 32.0402 57.6036 32.1027 56.9147C32.5435 51.0303 34.874 45.6804 38.5008 41.448C39.4049 40.3895 40.3905 39.4056 41.4491 38.5015C45.6797 34.8747 51.0313 32.5443 56.9157 32.1034C57.6046 32.041 58.3022 32.0098 58.9998 32.0098C59.6991 32.0098 60.3967 32.041 61.0856 32.1034C66.97 32.5443 72.3216 34.8747 76.5523 38.5015C77.6108 39.4056 78.5965 40.3895 79.5005 41.448C83.1256 45.6804 85.4561 51.0303 85.8986 56.9147C85.9593 57.6036 85.9906 58.303 85.9906 59.0005Z" fill="#2B66FF"/>
<path d="M79.4998 59C79.4998 59.531 79.4755 60.0603 79.4286 60.5844C79.0937 65.0527 77.3237 69.1168 74.5698 72.3305C73.8826 73.134 73.1347 73.8836 72.3313 74.5691C69.1176 77.323 65.0535 79.0947 60.5834 79.4296C60.061 79.4765 59.53 79.499 59.0008 79.499C58.4698 79.499 57.9388 79.4765 57.4164 79.4296C52.9463 79.0947 48.8823 77.323 45.6685 74.5691C44.8668 73.8836 44.1171 73.134 43.43 72.3305C40.6761 69.1168 38.9061 65.0527 38.5711 60.5844C38.5243 60.0603 38.5 59.531 38.5 59C38.5 58.469 38.5243 57.9397 38.5711 57.4157C38.9061 52.9473 40.6761 48.8815 43.43 45.6695C44.1171 44.8643 44.8668 44.1164 45.6685 43.4292C48.8823 40.677 52.9463 38.9053 57.4164 38.5704C57.9388 38.5235 58.4698 38.501 59.0008 38.501C59.53 38.501 60.061 38.5235 60.5834 38.5704C65.0535 38.9053 69.1176 40.677 72.3313 43.4292C73.1347 44.1164 73.8826 44.8643 74.5698 45.6695C77.3237 48.8815 79.0937 52.9473 79.4286 57.4157C79.4755 57.9397 79.4998 58.469 79.4998 59Z" fill="white"/>
<path d="M68.2361 61.6247C68.0052 61.0157 67.6859 60.4638 67.3094 60.0005C66.9033 59.5372 66.4678 59.1589 65.9455 58.8691C65.4231 58.5498 64.8435 58.3485 64.264 58.2323C64.729 58.0292 65.1629 57.7672 65.5116 57.4496C65.8882 57.1303 66.2075 56.7816 66.4383 56.3755C66.6708 55.9694 66.8738 55.5356 66.9901 55.0705C67.1064 54.5777 67.1931 54.0849 67.1931 53.5626C67.1931 52.6932 67.0474 51.9106 66.7576 51.213C66.4678 50.5171 66.0617 49.9376 65.4821 49.4725C64.9303 48.9814 64.2345 48.6326 63.3928 48.3723C63.3651 48.3723 63.3356 48.3428 63.3078 48.3428V44.369C63.3078 43.6731 62.756 43.123 62.0896 43.123C61.4216 43.123 60.8714 43.6731 60.8714 44.369V48.0235C60.6684 47.994 60.4064 47.994 60.1739 47.994H58.3189V44.369C58.3189 43.6731 57.767 43.123 57.0711 43.123C56.4048 43.123 55.8547 43.6731 55.8547 44.369V47.994H55.1571C55.0999 47.994 55.0131 47.994 54.9558 48.0235H50.6627C49.9669 48.0235 49.415 48.5736 49.415 49.2417C49.415 49.9081 49.9669 50.4599 50.6627 50.4599H54.0847V67.5421H50.72C50.0241 67.5421 49.474 68.0922 49.474 68.7585C49.474 69.4249 50.0241 69.9767 50.72 69.9767H54.9836C55.0409 70.0062 55.0999 70.0062 55.1571 70.0062H55.8547V73.6312C55.8547 74.3271 56.4048 74.8789 57.0711 74.8789C57.767 74.8789 58.3189 74.3271 58.3189 73.6312V70.0062H60.8714V73.6312C60.8714 74.3271 61.4216 74.8789 62.0896 74.8789C62.756 74.8789 63.3078 74.3271 63.3078 73.6312V69.7737C63.8874 69.6574 64.408 69.4839 64.9025 69.2809C65.4821 69.0483 65.975 68.7585 66.4383 68.4097C66.8738 68.0332 67.2521 67.6271 67.5697 67.1638C67.889 66.7005 68.1215 66.1781 68.3245 65.5968C68.4981 65.0173 68.5848 64.3804 68.5848 63.6845C68.5848 62.9592 68.4686 62.2633 68.2361 61.6247ZM56.9844 50.3714H60.0003C60.8419 50.3714 61.51 50.4599 62.0306 50.6334C62.5234 50.7791 62.9295 51.0117 63.2488 51.3015C63.5681 51.619 63.8006 51.9678 63.9446 52.4016C64.0904 52.8372 64.1772 53.3318 64.1772 53.8523C64.1772 54.3157 64.0904 54.7807 63.9741 55.2458C63.8284 55.6796 63.5976 56.0857 63.2783 56.405C62.9885 56.7521 62.6102 57.0141 62.1469 57.2171C61.6836 57.4201 61.0745 57.5069 60.3196 57.5069H56.9844V50.3714ZM65.1629 65.4823C64.9598 65.9456 64.67 66.3222 64.2935 66.6415C63.9151 66.9608 63.4813 67.1933 62.959 67.3373C62.4662 67.5108 61.8866 67.5698 61.2185 67.5698H56.9844V59.827H60.4654C61.3938 59.827 62.1469 59.9137 62.756 60.0873C63.3651 60.2625 63.8579 60.5229 64.264 60.8699C64.67 61.2187 64.9893 61.6247 65.1924 62.1175C65.3953 62.6399 65.5116 63.1917 65.5116 63.8581C65.5116 64.4671 65.3953 65.0173 65.1629 65.4823Z" fill="black"/>
</svg>
