<svg width="118" height="118" viewBox="0 0 118 118" fill="none" xmlns="http://www.w3.org/2000/svg">
<path d="M64.2592 92.619L77.2981 94.9999C80.8972 95.6558 82.4347 99.9628 80.0659 102.75L71.4832 112.853C69.1145 115.641 64.6149 114.819 63.3863 111.372L62.5481 109.023L62.4597 109.03C39.205 110.638 17.4374 96.1712 10.9891 73.7686C6.97017 59.8029 8.77484 45.6793 15.6171 33.9471C16.844 31.8439 19.6344 31.2608 21.6161 32.6751L21.7028 32.7358C23.4936 34.013 24.0246 36.4129 22.9348 38.2974C19.3029 44.5635 17.3906 51.6436 17.3906 59.0116C17.3906 82.1188 36.3504 100.903 59.5218 100.617C59.5287 100.607 59.5305 100.605 59.5392 100.593L58.9318 98.8939C57.6997 95.4476 60.6602 91.9631 64.2592 92.619Z" fill="black"/>
<path d="M109.124 59.0121C109.124 67.8587 106.83 76.379 102.471 83.9449C101.218 86.1175 98.343 86.7265 96.3005 85.2707C94.5322 84.0108 93.9995 81.6144 95.0858 79.7351C98.7161 73.4602 100.609 66.3594 100.609 59.0121C100.609 35.905 81.6495 17.1204 58.4781 17.405C58.4694 17.4172 58.4694 17.4189 58.4607 17.4311L59.0715 19.1421C60.3001 22.5797 57.3449 26.0572 53.7528 25.3995L40.6844 23.0014C37.0941 22.3419 35.5635 18.0436 37.9305 15.2654L46.5583 5.13823C48.9235 2.36175 53.4058 3.18602 54.6309 6.62018L55.4795 9.00102C56.6439 8.91597 57.836 8.88822 59.0004 8.88822C86.6436 8.88822 109.124 31.3672 109.124 59.0121Z" fill="#2B66FF"/>
<path d="M57.2012 8.913C56.6337 8.94081 56.042 8.96681 55.4745 8.99286L55.4468 8.88525H55.8251C56.2832 8.88525 56.7431 8.88525 57.2012 8.913Z" fill="#1C2021"/>
<path d="M85.9901 59C85.9901 59.6976 85.9589 60.397 85.8981 61.0841C85.4556 66.9703 83.1251 72.3202 79.5001 76.5526C78.596 77.6094 77.6103 78.595 76.5518 79.4991C72.3212 83.1241 66.9695 85.4563 61.0851 85.8971C60.3962 85.9596 59.6987 85.9908 58.9993 85.9908C58.3017 85.9908 57.6042 85.9596 56.9152 85.8971C51.0308 85.4563 45.6792 83.1241 41.4486 79.4991C40.39 78.595 39.4044 77.6094 38.5003 76.5526C34.8735 72.3202 32.543 66.9703 32.1022 61.0841C32.0398 60.397 32.0103 59.6976 32.0103 59C32.0103 58.3025 32.0398 57.6031 32.1022 56.9142C32.543 51.0298 34.8735 45.6799 38.5003 41.4475C39.4044 40.389 40.39 39.4051 41.4486 38.501C45.6792 34.8742 51.0308 32.5438 56.9152 32.103C57.6042 32.0405 58.3017 32.0093 58.9993 32.0093C59.6987 32.0093 60.3962 32.0405 61.0851 32.103C66.9695 32.5438 72.3212 34.8742 76.5518 38.501C77.6103 39.4051 78.596 40.389 79.5001 41.4475C83.1251 45.6799 85.4556 51.0298 85.8981 56.9142C85.9589 57.6031 85.9901 58.3025 85.9901 59Z" fill="#FEBB50"/>
<path d="M85.9901 59C85.9901 59.6976 85.9589 60.397 85.8981 61.0841C85.4556 66.9703 83.1251 72.3202 79.5001 76.5526C78.596 77.6094 77.6103 78.595 76.5518 79.4991C72.3212 83.1241 66.9695 85.4563 61.0851 85.8971C60.3962 85.9596 59.6987 85.9908 58.9993 85.9908C58.3017 85.9908 57.6042 85.9596 56.9152 85.8971C51.0308 85.4563 45.6792 83.1241 41.4486 79.4991C40.39 78.595 39.4044 77.6094 38.5003 76.5526C34.8735 72.3202 32.543 66.9703 32.1022 61.0841C32.0398 60.397 32.0103 59.6976 32.0103 59C32.0103 58.3025 32.0398 57.6031 32.1022 56.9142C32.543 51.0298 34.8735 45.6799 38.5003 41.4475C39.4044 40.389 40.39 39.4051 41.4486 38.501C45.6792 34.8742 51.0308 32.5438 56.9152 32.103C57.6042 32.0405 58.3017 32.0093 58.9993 32.0093C59.6987 32.0093 60.3962 32.0405 61.0851 32.103C66.9695 32.5438 72.3212 34.8742 76.5518 38.501C77.6103 39.4051 78.596 40.389 79.5001 41.4475C83.1251 45.6799 85.4556 51.0298 85.8981 56.9142C85.9589 57.6031 85.9901 58.3025 85.9901 59Z" fill="#2B66FF"/>
<path d="M79.4998 59C79.4998 59.531 79.4755 60.0603 79.4286 60.5844C79.0937 65.0527 77.3237 69.1168 74.5698 72.3305C73.8826 73.134 73.1347 73.8836 72.3313 74.5691C69.1176 77.323 65.0535 79.0947 60.5834 79.4296C60.061 79.4765 59.53 79.499 59.0008 79.499C58.4698 79.499 57.9388 79.4765 57.4164 79.4296C52.9463 79.0947 48.8823 77.323 45.6685 74.5691C44.8668 73.8836 44.1171 73.134 43.43 72.3305C40.6761 69.1168 38.9061 65.0527 38.5711 60.5844C38.5243 60.0603 38.5 59.531 38.5 59C38.5 58.469 38.5243 57.9397 38.5711 57.4157C38.9061 52.9473 40.6761 48.8815 43.43 45.6695C44.1171 44.8643 44.8668 44.1164 45.6685 43.4292C48.8823 40.677 52.9463 38.9053 57.4164 38.5704C57.9388 38.5235 58.4698 38.501 59.0008 38.501C59.53 38.501 60.061 38.5235 60.5834 38.5704C65.0535 38.9053 69.1176 40.677 72.3313 43.4292C73.1347 44.1164 73.8826 44.8643 74.5698 45.6695C77.3237 48.8815 79.0937 52.9473 79.4286 57.4157C79.4755 57.9397 79.4998 58.469 79.4998 59Z" fill="white"/>
<path d="M68.2356 61.6247C68.0047 61.0157 67.6855 60.4638 67.3089 60.0005C66.9029 59.5372 66.4673 59.1589 65.945 58.8691C65.4227 58.5498 64.843 58.3485 64.2635 58.2323C64.7285 58.0292 65.1624 57.7672 65.5111 57.4496C65.8877 57.1303 66.207 56.7816 66.4378 56.3755C66.6703 55.9694 66.8734 55.5356 66.9896 55.0705C67.1059 54.5777 67.1926 54.0849 67.1926 53.5626C67.1926 52.6932 67.0469 51.9106 66.7571 51.213C66.4673 50.5171 66.0612 49.9376 65.4816 49.4725C64.9298 48.9814 64.234 48.6326 63.3923 48.3723C63.3646 48.3723 63.3351 48.3428 63.3073 48.3428V44.369C63.3073 43.6731 62.7555 43.123 62.0891 43.123C61.4211 43.123 60.8709 43.6731 60.8709 44.369V48.0235C60.6679 47.994 60.4059 47.994 60.1734 47.994H58.3184V44.369C58.3184 43.6731 57.7665 43.123 57.0707 43.123C56.4043 43.123 55.8542 43.6731 55.8542 44.369V47.994H55.1566C55.0994 47.994 55.0126 47.994 54.9553 48.0235H50.6622C49.9664 48.0235 49.4146 48.5736 49.4146 49.2417C49.4146 49.9081 49.9664 50.4599 50.6622 50.4599H54.0842V67.5421H50.7195C50.0236 67.5421 49.4735 68.0922 49.4735 68.7585C49.4735 69.4249 50.0236 69.9767 50.7195 69.9767H54.9831C55.0404 70.0062 55.0994 70.0062 55.1566 70.0062H55.8542V73.6312C55.8542 74.3271 56.4043 74.8789 57.0707 74.8789C57.7665 74.8789 58.3184 74.3271 58.3184 73.6312V70.0062H60.8709V73.6312C60.8709 74.3271 61.4211 74.8789 62.0891 74.8789C62.7555 74.8789 63.3073 74.3271 63.3073 73.6312V69.7737C63.8869 69.6574 64.4075 69.4839 64.902 69.2809C65.4816 69.0483 65.9745 68.7585 66.4378 68.4097C66.8734 68.0332 67.2516 67.6271 67.5692 67.1638C67.8885 66.7005 68.121 66.1781 68.3241 65.5968C68.4976 65.0173 68.5843 64.3804 68.5843 63.6845C68.5843 62.9592 68.4681 62.2633 68.2356 61.6247ZM56.9839 50.3714H59.9999C60.8415 50.3714 61.5096 50.4599 62.0301 50.6334C62.5229 50.7791 62.929 51.0117 63.2483 51.3015C63.5676 51.619 63.8002 51.9678 63.9441 52.4016C64.0899 52.8372 64.1767 53.3318 64.1767 53.8523C64.1767 54.3157 64.0899 54.7807 63.9736 55.2458C63.8279 55.6796 63.5971 56.0857 63.2778 56.405C62.988 56.7521 62.6097 57.0141 62.1464 57.2171C61.6831 57.4201 61.074 57.5069 60.3191 57.5069H56.9839V50.3714ZM65.1624 65.4823C64.9593 65.9456 64.6695 66.3222 64.293 66.6415C63.9147 66.9608 63.4808 67.1933 62.9585 67.3373C62.4657 67.5108 61.8861 67.5698 61.218 67.5698H56.9839V59.827H60.4649C61.3933 59.827 62.1464 59.9137 62.7555 60.0873C63.3646 60.2625 63.8574 60.5229 64.2635 60.8699C64.6695 61.2187 64.9888 61.6247 65.1919 62.1175C65.3949 62.6399 65.5111 63.1917 65.5111 63.8581C65.5111 64.4671 65.3949 65.0173 65.1624 65.4823Z" fill="black"/>
</svg>
