<svg width="24" height="24" viewBox="0 0 24 24" fill="none" xmlns="http://www.w3.org/2000/svg">
<g clip-path="url(#clip0_378_4741)">
<path d="M5.31891 14.5036L4.4835 17.6223L1.43011 17.6869C0.517594 15.9944 0 14.0579 0 12.0001C0 10.0102 0.483938 8.13374 1.34175 6.48145H1.34241L4.06078 6.97982L5.25159 9.68188C5.00236 10.4085 4.86652 11.1885 4.86652 12.0001C4.86661 12.881 5.02617 13.725 5.31891 14.5036Z" fill="#FBBB00"/>
<path d="M23.7904 9.7583C23.9282 10.4842 24.0001 11.2339 24.0001 12.0001C24.0001 12.8592 23.9098 13.6972 23.7377 14.5056C23.1535 17.2563 21.6271 19.6583 19.5127 21.3581L19.512 21.3574L16.0881 21.1827L15.6035 18.1576C17.0065 17.3348 18.103 16.0471 18.6806 14.5056H12.2639V9.7583H18.7742H23.7904Z" fill="#518EF8"/>
<path d="M19.5122 21.3572L19.5128 21.3579C17.4564 23.0109 14.844 23.9999 12.0003 23.9999C7.43042 23.9999 3.45725 21.4456 1.43042 17.6867L5.31922 14.5034C6.33261 17.208 8.94162 19.1333 12.0003 19.1333C13.315 19.1333 14.5467 18.7779 15.6036 18.1575L19.5122 21.3572Z" fill="#28B446"/>
<path d="M19.6596 2.76263L15.7721 5.94525C14.6783 5.26153 13.3853 4.86656 12 4.86656C8.87213 4.86656 6.21431 6.88017 5.25169 9.68175L1.34245 6.48131H1.3418C3.33895 2.63077 7.36223 0 12 0C14.9117 0 17.5814 1.03716 19.6596 2.76263Z" fill="#F14336"/>
</g>
<defs>
<clipPath id="clip0_378_4741">
<rect width="24" height="24" fill="white"/>
</clipPath>
</defs>
</svg>
