<svg width="50" height="50" viewBox="0 0 50 50" fill="none" xmlns="http://www.w3.org/2000/svg">
<g clip-path="url(#clip0_395_118)">
<path d="M25.0002 0C18.3942 0.0192701 12.0659 2.65949 7.40495 7.34087C2.74401 12.0222 0.131505 18.3621 0.14114 24.9681C0.150775 31.5741 2.78176 37.9063 7.45634 42.574C12.1309 47.2418 18.4669 49.8635 25.0729 49.8635C31.679 49.8635 38.015 47.2418 42.6895 42.574C47.3641 37.9063 49.9951 31.5741 50.0047 24.9681C50.0144 18.3621 47.4019 12.0222 42.7409 7.34087C38.08 2.65949 31.7517 0.0192701 25.1457 0L25.0002 0Z" fill="#345D9D"/>
<path d="M25.4547 25.5593L23.2525 32.9547H34.9706C35.0481 32.9508 35.1255 32.9632 35.1979 32.9911C35.2702 33.0182 35.3366 33.0591 35.3934 33.1115C35.4497 33.1653 35.4952 33.2293 35.5275 33.3002C35.5616 33.3712 35.5802 33.4487 35.582 33.5274V33.7206L34.5616 37.2365C34.5179 37.4033 34.4174 37.5495 34.2775 37.6502C34.1389 37.7519 33.9697 37.8032 33.7979 37.7956H15.8661L18.8706 27.5683L15.5093 28.5865L16.2729 26.2433L19.6343 25.2229L23.8638 10.8365C23.9096 10.6708 24.0106 10.5257 24.1502 10.4252C24.2882 10.3235 24.4561 10.2707 24.6275 10.2752H29.1729C29.2505 10.2732 29.3277 10.2863 29.4002 10.3138C29.4734 10.3404 29.5407 10.3814 29.5979 10.4343C29.6553 10.4871 29.701 10.5514 29.732 10.6229C29.7646 10.6943 29.7824 10.7717 29.7843 10.8502V11.0456L26.2184 23.1706L29.582 22.1502L28.8638 24.5911L25.4547 25.5593Z" fill="white"/>
</g>
<defs>
<clipPath id="clip0_395_118">
<rect width="50" height="50" fill="white"/>
</clipPath>
</defs>
</svg>
