<svg width="46" height="46" viewBox="0 0 46 46" fill="none" xmlns="http://www.w3.org/2000/svg">
<path fill-rule="evenodd" clip-rule="evenodd" d="M22.9524 33.2887C25.3836 35.4742 28.6486 36.7998 32.1999 36.7998C39.8269 36.7998 45.9999 30.7311 45.9999 23.2669C45.9999 15.78 39.8269 9.71094 32.1999 9.71094C28.6486 9.71094 25.3836 11.0363 22.9524 13.222C20.1638 15.7099 18.3999 19.2908 18.3999 23.2669C18.4002 27.2429 20.1638 30.8241 22.9524 33.2887Z" fill="#E9B040"/>
<path fill-rule="evenodd" clip-rule="evenodd" d="M43.9556 31.1631C43.9556 30.8868 44.1768 30.666 44.453 30.666C44.7569 30.666 44.9778 30.8871 44.9778 31.1631C44.9778 31.4675 44.7566 31.6882 44.453 31.6882C44.1768 31.6882 43.9556 31.4675 43.9556 31.1631ZM44.453 31.578C44.6742 31.578 44.8672 31.3842 44.8672 31.1635C44.8672 30.9427 44.6739 30.7769 44.453 30.7769C44.2591 30.7769 44.0662 30.9427 44.0662 31.1635C44.0662 31.3842 44.2594 31.578 44.453 31.578ZM44.3977 31.4122H44.2871V30.9424H44.4803C44.5083 30.9424 44.5636 30.9424 44.591 30.9703C44.6463 30.9977 44.6463 31.0256 44.6463 31.0809C44.6463 31.1362 44.6189 31.1914 44.5636 31.1914L44.6742 31.4125H44.5357L44.4803 31.2187H44.3977V31.4122V31.1358H44.5083C44.5357 31.1358 44.5357 31.1079 44.5357 31.0806C44.5357 31.0526 44.5357 31.0526 44.5083 31.0253H44.3977V31.4122Z" fill="#E9B040"/>
<path fill-rule="evenodd" clip-rule="evenodd" d="M27.5285 21.8255C27.4808 21.3373 27.3854 20.8723 27.29 20.3838H18.8527C18.948 19.8956 19.0911 19.4307 19.2339 18.9654H26.885C26.7189 18.4759 26.528 17.9948 26.313 17.5238H19.83C20.0684 17.0312 20.3309 16.5501 20.6165 16.0821H25.5028C25.1885 15.5855 24.838 15.1115 24.4543 14.6637H21.6654C22.0968 14.1497 22.5668 13.6679 23.0716 13.222C20.6168 11.0596 17.3752 9.71094 13.8 9.71094C6.19688 9.71094 0 15.78 0 23.2669C0 30.7311 6.19688 36.7998 13.8 36.7998C17.3752 36.7998 20.6165 35.4742 23.0716 33.2887C23.5687 32.8507 24.0309 32.3764 24.4543 31.87H21.6654C21.2839 31.4051 20.9503 30.9401 20.6165 30.4284H25.5028C25.8101 29.9686 26.081 29.4866 26.3133 28.9867H19.83C19.6154 28.5218 19.4011 28.0568 19.2339 27.5681H26.885C27.0516 27.1031 27.1711 26.6152 27.2897 26.1264C27.3851 25.6614 27.4805 25.1735 27.5282 24.6847C27.5765 24.2133 27.6005 23.7398 27.6 23.2661C27.6 22.7787 27.5761 22.2904 27.5285 21.8255Z" fill="#CC2131"/>
<path fill-rule="evenodd" clip-rule="evenodd" d="M43.9556 26.5772C43.9556 26.2814 44.1768 26.0664 44.453 26.0664C44.7569 26.0664 44.9778 26.2817 44.9778 26.5772C44.9778 26.8464 44.7566 27.0886 44.453 27.0886C44.1768 27.0886 43.9556 26.8461 43.9556 26.5772ZM44.453 26.9537C44.6742 26.9537 44.8672 26.7922 44.8672 26.5772C44.8672 26.3622 44.6739 26.2007 44.453 26.2007C44.2591 26.2007 44.0662 26.3622 44.0662 26.5772C44.0662 26.7922 44.2594 26.9537 44.453 26.9537ZM44.3977 26.7922H44.2871V26.3619H44.591C44.6463 26.3891 44.6463 26.4429 44.6463 26.4968C44.6463 26.5234 44.6189 26.5772 44.5636 26.6044L44.6742 26.7925H44.5357L44.4803 26.631H44.3977V26.7922V26.5503H44.453C44.4803 26.5503 44.5083 26.5503 44.5083 26.523C44.5357 26.523 44.5357 26.4964 44.5357 26.4692C44.5357 26.4692 44.5357 26.4426 44.5083 26.4426C44.5083 26.4154 44.4803 26.4426 44.453 26.4426H44.3977V26.7922Z" fill="white"/>
<path fill-rule="evenodd" clip-rule="evenodd" d="M18.2899 27.4004C17.843 27.525 17.5135 27.6003 17.1843 27.6003C16.4786 27.6003 16.0549 27.1256 16.0549 26.2765C16.0549 26.102 16.0785 25.9271 16.102 25.7272L16.1961 25.1532L16.2667 24.6786L16.9019 20.5834H18.3134L18.1487 21.4824H19.0427L18.8309 22.9807H17.9369L17.5606 25.4278C17.5371 25.553 17.5371 25.6276 17.5371 25.6776C17.5371 26.0023 17.6783 26.1269 18.031 26.1269C18.1957 26.1269 18.3367 26.1023 18.4779 26.077L18.2899 27.4004ZM22.8539 27.3504C22.3364 27.5003 21.866 27.575 21.3483 27.575C19.7485 27.575 18.8309 26.6759 18.8309 24.9034C18.8309 22.8306 19.9132 21.3323 21.4186 21.3323C22.6183 21.3323 23.3947 22.1813 23.3947 23.5045C23.3947 23.9544 23.3476 24.3788 23.2302 24.9781H20.2895C20.2659 25.078 20.2659 25.128 20.2659 25.1779C20.2659 25.8771 20.7128 26.2266 21.5598 26.2266C22.1008 26.2266 22.5712 26.102 23.089 25.8524L22.8539 27.3504ZM21.9834 23.7796V23.4798C21.9834 22.9805 21.7245 22.7057 21.2777 22.7057C20.807 22.7057 20.4778 23.0801 20.3366 23.7793H21.9834V23.7796ZM6.99774 27.4751H5.53915L6.38612 21.8069L4.48065 27.4751H3.46922L3.35155 21.8319L2.45751 27.4751H1.02246L2.1751 20.1088H4.31591L4.36298 24.6539L5.79803 20.1088H8.15065L6.99774 27.4751ZM10.5503 24.8035C10.4091 24.7782 10.3621 24.7782 10.2679 24.7782C9.42096 24.7782 8.99762 25.1277 8.99762 25.6773C8.99762 26.052 9.20943 26.3018 9.53864 26.3018C10.2444 26.3018 10.5265 25.6773 10.5503 24.8035ZM11.7265 27.4751H10.4562L10.4797 26.8511C10.1503 27.3252 9.70338 27.575 8.92702 27.575C8.22126 27.575 7.60964 26.9011 7.60964 25.9271C7.60964 25.6526 7.6567 25.4031 7.72731 25.1532C7.96238 24.2289 8.83288 23.6549 10.1738 23.6297C10.3385 23.6297 10.5971 23.6297 10.8325 23.6549C10.8793 23.4551 10.8793 23.3799 10.8793 23.2552C10.8793 22.8555 10.5736 22.7306 9.89138 22.7306C9.46803 22.7306 8.99734 22.8056 8.66814 22.9305L8.45633 22.9804L8.36219 23.0051L8.574 21.6567C9.25622 21.4319 9.75017 21.3323 10.2915 21.3323C11.5618 21.3323 12.244 21.9565 12.244 23.1051C12.244 23.4048 12.2675 23.6297 12.1734 24.2789L11.8442 26.4264L11.7971 26.8011L11.7736 27.1009L11.7501 27.3008L11.7265 27.4751ZM29.9586 21.5321C30.3819 21.5321 30.7585 21.657 31.276 21.9315L31.5346 20.3333C31.3933 20.2584 31.3463 20.2584 31.1583 20.1834L30.5705 20.0085C30.3822 19.9586 30.1471 19.9336 29.888 19.9336C29.1584 19.9336 28.7351 19.9586 28.2885 20.2334C28.0531 20.4082 27.7472 20.6331 27.4177 21.0325L27.2294 20.9825L25.7237 22.1061L25.7946 21.4819H24.2416L23.3246 27.4748H24.807L25.3477 24.2539C25.3477 24.2539 25.5598 23.804 25.6537 23.6547C25.9361 23.2799 26.1712 23.2799 26.4768 23.2799H26.5948C26.5454 23.6605 26.5217 24.0443 26.5239 24.4285C26.5239 26.3762 27.5589 27.6 29.1587 27.6C29.5588 27.6 29.9121 27.55 30.4528 27.4001L30.712 25.7023C30.2415 25.9768 29.8179 26.1017 29.4649 26.1017C28.5947 26.1017 28.0766 25.4025 28.0766 24.3039C28.0761 22.6807 28.8527 21.5321 29.9586 21.5321ZM42.4499 20.1088L42.1209 22.2063C41.7679 21.632 41.3443 21.3572 40.7797 21.3572C40.0031 21.3572 39.2741 21.8316 38.8269 22.7306V22.7059L37.8861 22.1064L37.9802 21.4821H36.404L35.51 27.4751H36.9685L37.4628 24.2542C37.4628 24.2542 37.839 23.8042 37.9332 23.6549C38.1685 23.3552 38.4036 23.3049 38.5919 23.2802C38.4274 23.7796 38.3333 24.3788 38.3333 25.0533C38.3333 26.5516 39.0623 27.5503 40.1443 27.5503C40.6856 27.5503 41.109 27.3504 41.5088 26.8758L41.4384 27.4751H42.8267L43.9558 20.1088H42.4499ZM40.6388 26.052C40.1446 26.052 39.886 25.6526 39.886 24.8782C39.886 23.7043 40.3564 22.8555 41.0383 22.8555C41.5558 22.8555 41.815 23.2802 41.815 24.0294C41.815 25.2279 41.3446 26.052 40.6388 26.052ZM33.8404 24.8035C33.6992 24.7782 33.6521 24.7782 33.558 24.7782C32.7105 24.7782 32.2871 25.1277 32.2871 25.6773C32.2871 26.052 32.4992 26.3018 32.8284 26.3018C33.5342 26.3018 33.8166 25.6773 33.8404 24.8035ZM35.0166 27.4751H33.7224L33.7695 26.8511C33.4403 27.3252 32.9929 27.575 32.2171 27.575C31.4875 27.575 30.8526 26.9258 30.8526 25.9271C30.8526 24.504 31.8638 23.63 33.4636 23.63C33.6286 23.63 33.8869 23.63 34.099 23.6552C34.1461 23.4554 34.1699 23.3802 34.1699 23.2555C34.1699 22.8558 33.8639 22.7309 33.1582 22.7309C32.7581 22.7309 32.2641 22.8059 31.9349 22.9308L31.7466 22.9807L31.6525 23.0054L31.864 21.657C32.5465 21.4322 33.0408 21.3326 33.5815 21.3326C34.8518 21.3326 35.5105 21.9568 35.5105 23.1054C35.5105 23.4051 35.5576 23.63 35.4402 24.2792L35.1342 26.4267L35.0872 26.8014L35.0401 27.1012L35.0168 27.3011V27.4751H35.0166ZM14.8082 22.7556C15.0906 22.7556 15.4904 22.7806 15.914 22.8555L16.1258 21.4572C15.7022 21.4072 15.1376 21.3323 14.8082 21.3323C13.1616 21.3323 12.6206 22.2813 12.6206 23.3799C12.6206 24.1043 12.9262 24.6283 13.7261 25.0278C14.3142 25.3275 14.4083 25.3772 14.4083 25.6523C14.4083 26.0264 14.1027 26.2516 13.5378 26.2516C13.091 26.2516 12.6673 26.1763 12.1969 26.0017L12.0322 27.3748L12.0554 27.4001L12.3379 27.4501C12.432 27.4748 12.5497 27.5 12.7144 27.5247C13.0672 27.55 13.3731 27.5747 13.5614 27.5747C15.2082 27.5747 15.8905 26.9008 15.8905 25.5771C15.8905 24.7533 15.5139 24.2539 14.7846 23.9045C14.1495 23.6044 14.0789 23.555 14.0789 23.2799C14.0789 23.0054 14.3613 22.7556 14.8082 22.7556Z" fill="#1B3771"/>
<path fill-rule="evenodd" clip-rule="evenodd" d="M32.0484 19.7963L31.7888 21.3946C31.2705 21.1198 30.8933 20.9952 30.4693 20.9952C29.3616 20.9952 28.5842 22.1438 28.5842 23.7671C28.5842 24.891 29.1026 25.5649 29.9748 25.5649C30.3278 25.5649 30.7521 25.4403 31.2233 25.1908L30.9643 26.8634C30.4221 27.0133 30.0688 27.0885 29.6681 27.0885C28.0659 27.0885 27.0761 25.8647 27.0761 23.8923C27.0761 21.27 28.4428 19.4219 30.3986 19.4219C30.6576 19.4219 30.893 19.4469 31.0816 19.4968L31.671 19.6467C31.8598 19.7217 31.907 19.7466 32.0484 19.7963ZM27.2883 20.8953H27.1468C26.6523 20.8953 26.3695 21.1451 25.9216 21.869L26.063 20.9449H24.7196L23.8011 26.9384H25.2859C25.8276 23.2674 25.969 22.6431 26.6759 22.6431H26.7702C26.9116 21.9189 27.1 21.3943 27.3357 20.9199L27.2883 20.8953ZM18.7583 26.8634C18.3579 27.0133 18.0278 27.0633 17.6981 27.0633C16.944 27.0633 16.5197 26.6139 16.5197 25.7401C16.5197 25.5902 16.5433 25.3906 16.5669 25.2154L16.6612 24.6162L16.7319 24.1421L17.3681 20.0461H18.8291L18.664 20.9452H19.4181L19.2295 22.4186H18.4755L18.075 24.916C18.0514 25.0159 18.0514 25.0911 18.0514 25.1658C18.0514 25.4656 18.1929 25.5905 18.5462 25.5905C18.7112 25.5905 18.8524 25.5905 18.9466 25.5405L18.7583 26.8634ZM13.0794 22.843C13.0794 23.5925 13.4091 24.1165 14.1868 24.5162C14.7994 24.816 14.8937 24.9157 14.8937 25.1655C14.8937 25.5402 14.6344 25.7148 14.0453 25.7148C13.5977 25.7148 13.197 25.6401 12.7258 25.4903L12.5136 26.8634L12.5844 26.8887L12.8437 26.9386C12.9377 26.9633 13.0558 26.9886 13.2441 26.9886C13.5739 27.0386 13.8568 27.0386 14.0453 27.0386C15.6004 27.0386 16.3311 26.414 16.3311 25.0409C16.3311 24.2164 16.025 23.7418 15.2945 23.3676C14.6583 23.0678 14.5875 22.9932 14.5875 22.7184C14.5875 22.3939 14.8468 22.244 15.318 22.244C15.6009 22.244 16.0014 22.269 16.3785 22.319L16.5904 20.9455C16.2135 20.8706 15.6245 20.8206 15.2945 20.8206C13.6449 20.8203 13.0558 21.7444 13.0794 22.843ZM43.3356 26.9386H41.945L42.016 26.364C41.6153 26.8134 41.191 27.0133 40.6488 27.0133C39.5649 27.0133 38.858 26.0399 38.858 24.5415C38.858 22.5435 39.9657 20.8453 41.2614 20.8453C41.8507 20.8453 42.2748 21.1201 42.6758 21.6694L43.0055 19.5718H44.4665L43.3356 26.9386ZM41.1674 25.5402C41.851 25.5402 42.3222 24.6911 42.3222 23.5172C42.3222 22.7431 42.0626 22.3433 41.5443 22.3433C40.8845 22.3433 40.39 23.1675 40.39 24.3414C40.39 25.1408 40.649 25.5402 41.1674 25.5402ZM23.2825 26.8134C22.7639 26.9886 22.2927 27.0633 21.7508 27.0633C20.1012 27.0633 19.2528 26.1395 19.2528 24.3663C19.2528 22.3187 20.3369 20.7953 21.8215 20.7953C23.0467 20.7953 23.8241 21.6444 23.8241 22.9679C23.8241 23.4176 23.777 23.8423 23.6355 24.4663H20.7141C20.6905 24.5415 20.6905 24.5915 20.6905 24.6414C20.6905 25.3407 21.1384 25.6901 21.9865 25.6901C22.5284 25.6901 22.9996 25.5902 23.5182 25.3154L23.2825 26.8134ZM22.4577 23.2424V22.9429C22.4577 22.4436 22.1984 22.1688 21.7508 22.1688C21.2796 22.1688 20.9495 22.5435 20.8081 23.2424H22.4577ZM7.4476 26.9386H5.98661L6.83497 21.2697L4.92637 26.9386H3.913L3.79513 21.3197L2.8999 26.9386H1.5332L2.68774 19.5718H4.8085L4.87922 24.1418L6.29279 19.5718H8.60214L7.4476 26.9386ZM11.1001 24.2664C10.9586 24.2664 10.8879 24.2417 10.77 24.2417C9.94526 24.2417 9.52122 24.5662 9.52122 25.1655C9.52122 25.5402 9.7098 25.7648 10.0396 25.7648C10.6522 25.7648 11.0765 25.1655 11.1001 24.2664ZM12.1839 26.9386H10.9584L10.9819 26.3141C10.6048 26.8134 10.11 27.0386 9.42665 27.0386C8.62543 27.0386 8.08353 26.3893 8.08353 25.4153C8.08353 23.9422 9.0259 23.0931 10.6755 23.0931C10.8405 23.0931 11.0526 23.1181 11.2881 23.1428C11.3353 22.9432 11.3353 22.8683 11.3353 22.7683C11.3353 22.3689 11.0759 22.219 10.3926 22.219C9.96856 22.219 9.49709 22.269 9.16734 22.3689L8.95518 22.4439L8.81374 22.4688L9.0259 21.1204C9.7564 20.8955 10.2512 20.8206 10.7933 20.8206C12.0657 20.8206 12.7491 21.4199 12.7491 22.5685C12.7491 22.8683 12.7255 23.0931 12.6312 23.7673L12.3012 25.8903L12.2541 26.2644L12.2305 26.5642L12.2069 26.7893L12.1839 26.9386ZM34.4285 24.2664C34.2632 24.2664 34.1927 24.2417 34.0987 24.2417C33.2504 24.2417 32.8258 24.5662 32.8258 25.1655C32.8258 25.5402 33.0382 25.7648 33.368 25.7648C33.9573 25.7648 34.4046 25.1655 34.4285 24.2664ZM35.5123 26.9386H34.287L34.3103 26.3141C33.9334 26.8134 33.4387 27.0386 32.7553 27.0386C31.9541 27.0386 31.4119 26.3893 31.4119 25.4153C31.4119 23.9422 32.3543 23.0931 34.0039 23.0931C34.1692 23.0931 34.3813 23.1181 34.5932 23.1428C34.6404 22.9432 34.6642 22.8683 34.6642 22.7683C34.6642 22.3689 34.4046 22.219 33.7218 22.219C33.2972 22.219 32.8027 22.269 32.4727 22.3689L32.2841 22.4439L32.1427 22.4688L32.3546 21.1204C33.0854 20.8955 33.5798 20.8206 34.122 20.8206C35.3944 20.8206 36.0542 21.4199 36.0542 22.5685C36.0542 22.8683 36.0542 23.0931 35.9366 23.7673L35.6302 25.8903L35.583 26.2644L35.5359 26.5642L35.5126 26.7893V26.9386H35.5123ZM39.4709 20.8953H39.3295C38.835 20.8953 38.5521 21.1451 38.1042 21.869L38.2457 20.9449H36.9023L36.0068 26.9384H37.4678C38.0099 23.2674 38.1514 22.6431 38.8583 22.6431H38.9526C39.094 21.9189 39.2823 21.3943 39.5181 20.9199L39.4709 20.8953Z" fill="white"/>
</svg>
