<svg width="71" height="71" viewBox="0 0 71 71" fill="none" xmlns="http://www.w3.org/2000/svg">
<path d="M33.1505 16.1708C33.9853 15.9069 34.8241 15.6361 35.6635 15.3652C38.7704 14.3625 41.885 13.3573 44.8308 12.6846C48.6115 11.8213 51.7691 11.5969 54.0316 12.4213C55.1169 12.8167 55.9982 13.4547 56.6734 14.4193C57.3601 15.4004 57.8901 16.8015 58.119 18.7984C58.5816 22.8334 57.7828 28.9975 55.0197 38.1538C54.6329 39.4353 53.9049 40.6379 52.949 41.5939L32.0446 62.4982C28.7252 65.8177 23.3433 65.8177 20.0238 62.4982L8.71142 51.1858C5.39196 47.8663 5.39196 42.4844 8.71141 39.165L29.5295 18.3469C30.5318 17.3446 31.7756 16.6055 33.1505 16.1708Z" stroke="black" stroke-width="3"/>
<circle cx="46.2078" cy="25.1838" r="5.99969" fill="#296AF4"/>
</svg>
