<svg width="46" height="46" viewBox="0 0 46 46" fill="none" xmlns="http://www.w3.org/2000/svg">
<path d="M34.5028 13.9008C34.2915 13.775 34.0315 13.7662 33.8124 13.8774C33.5937 13.9889 33.4458 14.205 33.4196 14.4513C33.3936 14.6908 33.3532 14.9303 33.3026 15.1815C31.8886 21.6696 29.0491 24.8253 24.6195 24.8253H18.1202C17.7775 24.8259 17.4825 25.07 17.4139 25.4094L15.2475 35.6768L14.8605 38.2908C14.6379 39.4795 15.4105 40.6255 16.5861 40.8505C16.7157 40.8753 16.8473 40.8881 16.9792 40.8887H21.3265C22.323 40.8918 23.1917 40.2042 23.428 39.2254L25.1842 32.1269H28.9524C33.3993 32.1269 36.4728 28.5418 37.6065 22.0318C38.3549 18.9319 37.1168 15.6885 34.5028 13.9008Z" fill="#03A9F4"/>
<path d="M33.4187 8.2244C31.9723 6.58778 29.8965 5.64163 27.7093 5.62212H15.5879C13.7739 5.6124 12.2295 6.93634 11.9662 8.72671L8.20243 33.7726C8.02216 34.9689 8.84816 36.0845 10.0475 36.2644C10.1563 36.2807 10.2663 36.2888 10.3764 36.2887H15.9979C16.3453 36.2881 16.6443 36.0441 16.7138 35.7046L18.7852 26.0666H24.7874C29.9961 26.0666 33.4378 22.4347 35.0189 15.2602C35.0824 14.9742 35.1313 14.6852 35.1653 14.3942C35.5322 12.1808 34.8921 9.91935 33.4187 8.2244Z" fill="#283593"/>
</svg>
