<svg width="24" height="24" viewBox="0 0 24 24" fill="none" xmlns="http://www.w3.org/2000/svg">
<path d="M9 19L9.10747 18.2577L8.19945 18.1263L8.25119 19.0423L9 19ZM15 19L15.7488 19.0423L15.8006 18.1263L14.8925 18.2577L15 19ZM14.909 19.7412L15.6457 19.8819V19.8819L14.909 19.7412ZM14.8268 20.1718L14.0901 20.0312V20.0312L14.8268 20.1718ZM12.706 22.8927L12.9268 23.6095H12.9268L12.706 22.8927ZM11.294 22.8927L11.0732 23.6095H11.0732L11.294 22.8927ZM9.17325 20.1718L9.90994 20.0312L9.17325 20.1718ZM9.09103 19.7412L8.35434 19.8819L8.35434 19.8819L9.09103 19.7412ZM8.89253 19.7423C10.9576 20.0412 13.0424 20.0412 15.1075 19.7423L14.8925 18.2577C12.97 18.5361 11.03 18.5361 9.10747 18.2577L8.89253 19.7423ZM15.6457 19.8819C15.6984 19.6055 15.7329 19.3247 15.7488 19.0423L14.2512 18.9577C14.2389 19.1748 14.2125 19.3899 14.1723 19.6006L15.6457 19.8819ZM15.5634 20.3125L15.6457 19.8819L14.1723 19.6006L14.0901 20.0312L15.5634 20.3125ZM12.9268 23.6095C14.3087 23.1838 15.2696 21.8517 15.5634 20.3125L14.0901 20.0312C13.8688 21.1902 13.1929 21.958 12.4852 22.176L12.9268 23.6095ZM11.0732 23.6095C11.6812 23.7968 12.3188 23.7968 12.9268 23.6095L12.4852 22.176C12.1649 22.2747 11.8351 22.2747 11.5148 22.176L11.0732 23.6095ZM8.43655 20.3125C8.73044 21.8517 9.6913 23.1838 11.0732 23.6095L11.5148 22.176C10.8071 21.958 10.1312 21.1902 9.90994 20.0312L8.43655 20.3125ZM8.35434 19.8819L8.43655 20.3125L9.90994 20.0312L9.82772 19.6006L8.35434 19.8819ZM8.25119 19.0423C8.26715 19.3247 8.30157 19.6055 8.35434 19.8819L9.82772 19.6006C9.7875 19.3899 9.76107 19.1748 9.74881 18.9577L8.25119 19.0423Z" fill="#2B66FF"/>
<path d="M12.75 1C12.75 0.585786 12.4142 0.25 12 0.25C11.5858 0.25 11.25 0.585786 11.25 1H12.75ZM11.25 2C11.25 2.41421 11.5858 2.75 12 2.75C12.4142 2.75 12.75 2.41421 12.75 2H11.25ZM11.25 1V2H12.75V1H11.25Z" fill="#2B66FF"/>
<path d="M4.83336 7.59475L5.5576 7.78962L5.5576 7.78962L4.83336 7.59475ZM9.79006 2.362L9.55733 1.64902V1.64902L9.79006 2.362ZM4.77956 7.79468L4.05532 7.59981L4.05532 7.59981L4.77956 7.79468ZM4.54747 12.7121L5.28686 12.5864H5.28686L4.54747 12.7121ZM4.57448 12.8709L3.83509 12.9966L3.83509 12.9966L4.57448 12.8709ZM5.14511 18.2583L5.29583 17.5236H5.29583L5.14511 18.2583ZM5.58622 18.3487L5.4355 19.0834H5.4355L5.58622 18.3487ZM18.4138 18.3487L18.5645 19.0834H18.5645L18.4138 18.3487ZM18.8549 18.2583L18.7042 17.5236H18.7042L18.8549 18.2583ZM19.4307 12.8405L20.1701 12.9662V12.9662L19.4307 12.8405ZM19.4593 12.672L18.72 12.5463L18.72 12.5463L19.4593 12.672ZM19.2501 7.82876L18.5243 8.01785L18.5243 8.01786L19.2501 7.82876ZM19.1752 7.54129L19.9009 7.3522V7.3522L19.1752 7.54129ZM14.3605 2.36943L14.5972 1.65775V1.65775L14.3605 2.36943ZM19.6236 13.2357L19.2554 13.8891L19.6236 13.2357ZM4.40156 13.2217L4.76266 13.8791L4.40156 13.2217ZM5.5576 7.78962C6.15693 5.56218 7.85345 3.78308 10.0228 3.07497L9.55733 1.64902C6.90658 2.51427 4.84016 4.68295 4.10912 7.39988L5.5576 7.78962ZM5.5038 7.98955L5.5576 7.78962L4.10912 7.39988L4.05532 7.59981L5.5038 7.98955ZM5.28686 12.5864C5.02672 11.0564 5.10079 9.48734 5.5038 7.98955L4.05532 7.59981C3.59604 9.30673 3.51168 11.0945 3.80808 12.8378L5.28686 12.5864ZM5.31387 12.7452L5.28686 12.5864L3.80808 12.8378L3.83509 12.9966L5.31387 12.7452ZM3.75 15.6037C3.75 14.8564 4.16084 14.2097 4.76266 13.8791L4.04047 12.5644C2.97267 13.1509 2.25 14.2936 2.25 15.6037H3.75ZM5.29583 17.5236C4.4024 17.3403 3.75 16.5419 3.75 15.6037H2.25C2.25 17.2423 3.39171 18.6642 4.99439 18.993L5.29583 17.5236ZM5.73694 17.614L5.29583 17.5236L4.99439 18.993L5.4355 19.0834L5.73694 17.614ZM18.2631 17.614C14.1297 18.462 9.87029 18.462 5.73694 17.614L5.4355 19.0834C9.76773 19.9722 14.2323 19.9722 18.5645 19.0834L18.2631 17.614ZM18.7042 17.5236L18.2631 17.614L18.5645 19.0834L19.0056 18.993L18.7042 17.5236ZM20.25 15.6037C20.25 16.5419 19.5976 17.3403 18.7042 17.5236L19.0056 18.993C20.6083 18.6642 21.75 17.2423 21.75 15.6037H20.25ZM19.2554 13.8891C19.8474 14.2227 20.25 14.864 20.25 15.6037H21.75C21.75 14.3068 21.0418 13.174 19.9918 12.5823L19.2554 13.8891ZM18.72 12.5463L18.6913 12.7148L20.1701 12.9662L20.1987 12.7977L18.72 12.5463ZM18.5243 8.01786C18.9093 9.49564 18.9761 11.04 18.72 12.5463L20.1987 12.7977C20.4904 11.0821 20.4144 9.32311 19.9758 7.63967L18.5243 8.01786ZM18.4494 7.73038L18.5243 8.01785L19.9758 7.63967L19.9009 7.3522L18.4494 7.73038ZM14.1238 3.0811C16.2472 3.78729 17.8775 5.53529 18.4494 7.73039L19.9009 7.3522C19.2025 4.67143 17.2083 2.52614 14.5972 1.65775L14.1238 3.0811ZM10.0228 3.07497C11.3531 2.64073 12.7992 2.64059 14.1238 3.0811L14.5972 1.65775C12.9646 1.11481 11.1894 1.11628 9.55733 1.64902L10.0228 3.07497ZM19.9918 12.5823C20.1126 12.6504 20.1991 12.7954 20.1701 12.9662L18.6913 12.7148C18.6083 13.2031 18.8564 13.6643 19.2554 13.8891L19.9918 12.5823ZM3.83509 12.9966C3.80303 12.8081 3.89888 12.6421 4.04047 12.5644L4.76266 13.8791C5.15369 13.6643 5.39405 13.2168 5.31387 12.7452L3.83509 12.9966Z" fill="black"/>
<path d="M10 11.833C10 12.583 10.5833 13.1663 11.3333 13.1663H12.75C13.3333 13.1663 13.9167 12.6663 13.9167 11.9997C13.9167 11.2497 13.5833 10.9997 13.1667 10.833L10.8333 9.99967C10.25 9.91634 10 9.66634 10 8.99967C10 8.33301 10.5 7.83301 11.1667 7.83301H12.6667C13.4167 7.83301 14 8.41634 14 9.16634" stroke="#2B66FF" stroke-width="1.2" stroke-linecap="round" stroke-linejoin="round"/>
<path d="M11.916 7V14" stroke="#2B66FF" stroke-width="1.2" stroke-linecap="round" stroke-linejoin="round"/>
</svg>
