<svg width="155" height="179" viewBox="0 0 155 179" fill="none" xmlns="http://www.w3.org/2000/svg">
<g clip-path="url(#clip0_378_4633)">
<path d="M101.638 95.2304C114.973 81.8645 114.973 60.1941 101.638 46.8282C88.3041 33.4623 66.6851 33.4623 53.3508 46.8282C40.0166 60.1941 40.0166 81.8645 53.3508 95.2304C66.685 108.596 88.3041 108.596 101.638 95.2304Z" fill="white"/>
<path d="M97.2792 78.8562C97.2792 82.0683 96.0551 84.5721 93.6169 86.3478C91.1787 88.1334 87.6359 89.0212 82.9983 89.0212H61.144V82.3676H66.9957V59.7232H61.144V53.0696H81.8538C85.9341 53.0696 89.0391 53.9574 91.1887 55.743C93.3283 57.5286 94.4031 59.8629 94.4031 62.7657C94.4031 65.908 92.99 68.372 90.1636 70.1576C94.9007 71.5541 97.2792 74.457 97.2792 78.8562ZM75.3155 59.7332V68.1725H79.8137C81.8041 68.1725 83.3168 67.8433 84.3617 67.1749C85.4066 66.5065 85.9341 65.4092 85.9341 63.873C85.9341 62.4066 85.4763 61.3492 84.5707 60.7008C83.6651 60.0524 82.6002 59.7332 81.3761 59.7332H75.3155ZM88.8102 78.1779C88.8102 76.7813 88.3424 75.7638 87.397 75.1154C86.4516 74.467 84.9887 74.1478 83.0083 74.1478H75.3254V82.3775H82.441C86.6805 82.3676 88.8102 80.971 88.8102 78.1779Z" fill="#2B66FF"/>
<path d="M74.997 48.012H69.0359V94.1186H74.997V48.012Z" fill="#2B66FF"/>
<path d="M86.9094 48.012H80.9482V56.3914H86.9094V48.012Z" fill="#2B66FF"/>
<path d="M86.9094 85.7292H80.9482V94.1087H86.9094V85.7292Z" fill="#2B66FF"/>
<path d="M98.0853 55.4937C101.504 55.4937 104.275 52.7158 104.275 49.289C104.275 45.8622 101.504 43.0842 98.0853 43.0842C94.6666 43.0842 91.8953 45.8622 91.8953 49.289C91.8953 52.7158 94.6666 55.4937 98.0853 55.4937Z" fill="#2B66FF"/>
<path d="M77.495 116.324C102.454 116.324 122.686 96.0432 122.686 71.0255C122.686 46.0077 102.454 25.7268 77.495 25.7268C52.5366 25.7268 32.3037 46.0077 32.3037 71.0255C32.3037 96.0432 52.5366 116.324 77.495 116.324Z" stroke="white" stroke-width="3.3638" stroke-miterlimit="10"/>
<path d="M152.91 71.0255C152.91 71.0255 119.143 116.324 77.495 116.324C35.8565 116.324 2.08984 71.0255 2.08984 71.0255C2.08984 71.0255 35.8565 25.7268 77.5049 25.7268C119.143 25.7268 152.91 71.0255 152.91 71.0255Z" stroke="white" stroke-width="3.3638" stroke-miterlimit="10"/>
</g>
<path d="M28.5456 168.4C27.3723 168.4 26.319 168.347 25.3856 168.24C24.479 168.133 23.479 167.933 22.3856 167.64C21.159 167.32 20.1456 166.907 19.3456 166.4C18.5456 165.867 17.879 165.133 17.3456 164.2C16.7856 163.267 16.5056 162.16 16.5056 160.88V149.48C16.5056 144.253 20.519 141.64 28.5456 141.64C30.599 141.64 33.3456 141.933 36.7856 142.52V147.2C33.6923 146.453 30.9723 146.08 28.6256 146.08C27.639 146.08 26.8656 146.107 26.3056 146.16C25.7723 146.213 25.2123 146.347 24.6256 146.56C23.3723 146.987 22.7456 147.933 22.7456 149.4V160.44C22.7456 162.787 24.8923 163.96 29.1856 163.96C31.0256 163.96 33.6123 163.573 36.9456 162.8V167.52C34.0923 168.107 31.2923 168.4 28.5456 168.4ZM40.6928 148.64H46.2528V152.04C46.2528 151.427 46.5061 150.827 47.0128 150.24C47.5195 149.653 48.1595 149.173 48.9328 148.8C49.7328 148.427 50.5195 148.24 51.2928 148.24H53.3728V153.08H51.3728C49.7195 153.08 48.4928 153.333 47.6928 153.84C46.9195 154.347 46.5328 155.187 46.5328 156.36V168H40.6928V148.64ZM62.0713 167.84L54.3513 148.64H60.7113L65.0713 162.32L69.0313 148.64H75.0713L64.4713 176.32H58.5513L62.0713 167.84ZM77.9584 148.64H83.4784V150.56C83.8251 149.707 84.5051 149.107 85.5184 148.76C86.5318 148.413 88.0384 148.24 90.0384 148.24C91.7184 148.24 93.0651 148.373 94.0784 148.64C95.1184 148.907 95.9051 149.333 96.4384 149.92C96.9451 150.507 97.2918 151.16 97.4784 151.88C97.6651 152.573 97.7584 153.533 97.7584 154.76V161.12C97.7584 163.04 97.4784 164.52 96.9184 165.56C96.3584 166.6 95.4918 167.333 94.3184 167.76C93.1718 168.187 91.5984 168.4 89.5984 168.4C87.6784 168.4 86.2918 168.24 85.4384 167.92C84.5851 167.6 84.0384 166.973 83.7984 166.04V176.32H77.9584V148.64ZM87.7984 164.76C88.9451 164.76 89.8118 164.68 90.3984 164.52C90.9851 164.36 91.3851 164.08 91.5984 163.68C91.8118 163.28 91.9184 162.68 91.9184 161.88V154.72C91.9184 153.84 91.8251 153.213 91.6384 152.84C91.4518 152.44 91.0784 152.173 90.5184 152.04C89.9584 151.907 89.0384 151.84 87.7584 151.84C86.6651 151.84 85.8251 151.933 85.2384 152.12C84.6784 152.307 84.2918 152.6 84.0784 153C83.8918 153.4 83.7984 153.973 83.7984 154.72V161.88C83.7984 162.68 83.8918 163.28 84.0784 163.68C84.2918 164.08 84.6784 164.36 85.2384 164.52C85.7984 164.68 86.6518 164.76 87.7984 164.76ZM112.013 168.4C111.027 168.4 110.2 168.36 109.533 168.28C108.867 168.2 108.2 168.04 107.533 167.8C106.787 167.56 106.173 167.227 105.693 166.8C105.24 166.373 104.867 165.787 104.573 165.04C104.253 164.267 104.093 163.373 104.093 162.36V152.24H100.173V148.64H104.093V143.04H109.933V148.64H115.253V152.24H109.933V161.36C109.933 162.293 110.013 163 110.173 163.48C110.333 163.933 110.64 164.267 111.093 164.48C111.547 164.667 112.24 164.76 113.173 164.76C113.547 164.76 114.24 164.693 115.253 164.56V168.2C114 168.333 112.92 168.4 112.013 168.4ZM127.903 168.4C126.703 168.4 125.716 168.36 124.943 168.28C124.169 168.2 123.343 168.04 122.463 167.8C121.503 167.533 120.729 167.16 120.143 166.68C119.556 166.173 119.063 165.467 118.663 164.56C118.263 163.68 118.063 162.613 118.063 161.36V155.64C118.063 154.36 118.263 153.24 118.663 152.28C119.063 151.32 119.583 150.573 120.223 150.04C120.783 149.587 121.516 149.213 122.423 148.92C123.356 148.6 124.263 148.4 125.143 148.32C126.156 148.267 127.076 148.24 127.903 148.24C129.129 148.24 130.103 148.28 130.823 148.36C131.569 148.413 132.383 148.573 133.263 148.84C134.223 149.133 134.996 149.533 135.583 150.04C136.196 150.547 136.716 151.267 137.143 152.2C137.543 153.16 137.743 154.307 137.743 155.64V161.36C137.743 162.56 137.543 163.613 137.143 164.52C136.769 165.427 136.276 166.133 135.663 166.64C135.129 167.093 134.396 167.467 133.463 167.76C132.556 168.027 131.663 168.2 130.783 168.28C129.983 168.36 129.023 168.4 127.903 168.4ZM127.903 164.76C128.996 164.76 129.823 164.68 130.383 164.52C130.943 164.333 131.329 164.053 131.543 163.68C131.783 163.307 131.903 162.76 131.903 162.04V154.72C131.903 153.653 131.623 152.907 131.063 152.48C130.503 152.053 129.449 151.84 127.903 151.84C126.356 151.84 125.303 152.053 124.743 152.48C124.183 152.907 123.903 153.653 123.903 154.72V162.04C123.903 162.76 124.009 163.307 124.223 163.68C124.463 164.053 124.863 164.333 125.423 164.52C125.983 164.68 126.809 164.76 127.903 164.76Z" fill="white"/>
<defs>
<clipPath id="clip0_378_4633">
<rect width="155" height="118" fill="white"/>
</clipPath>
</defs>
</svg>
