<svg width="118" height="118" viewBox="0 0 118 118" fill="none" xmlns="http://www.w3.org/2000/svg">
<path d="M114.53 30.2263V87.7745C114.53 92.5664 110.645 96.451 105.853 96.451H12.1472C7.35529 96.451 3.4707 92.5664 3.4707 87.7745V30.2263C3.4707 25.4344 7.35529 21.5498 12.1472 21.5498H105.853C110.645 21.5498 114.53 25.4344 114.53 30.2263Z" fill="#2B66FF"/>
<path d="M3.4707 37.4326H114.53V52.8212H3.4707V37.4326Z" fill="white"/>
<path d="M3.4707 42H114.53V48.2538H3.4707V42Z" fill="black"/>
<path d="M34.9492 66.1959V79.5763C34.9492 82.6298 32.4966 85.0828 29.4431 85.0828H16.0452C12.9922 85.0828 10.5396 82.6298 10.5396 79.5763V66.1959C10.5396 63.1425 12.9922 60.6895 16.0452 60.6895H29.4431C32.4966 60.6895 34.9492 63.1425 34.9492 66.1959Z" fill="white"/>
<path d="M17.0479 60.6855H19.6508V85.0855H17.0479V60.6855Z" fill="black"/>
<path d="M25.8389 60.6855H28.4418V85.0855H25.8389V60.6855Z" fill="black"/>
<path d="M27.1401 75.9805H34.9438V78.5834H27.1401V75.9805Z" fill="black"/>
<path d="M27.1401 67.1875H34.9438V69.7904H27.1401V67.1875Z" fill="black"/>
<path d="M10.5405 75.9805H18.3441V78.5834H10.5405V75.9805Z" fill="black"/>
<path d="M10.5405 67.1875H18.3441V69.7904H10.5405V67.1875Z" fill="black"/>
<path d="M104.209 70.0663H92.4301C91.4718 70.0663 90.6948 69.2893 90.6948 68.331C90.6948 67.3727 91.4718 66.5957 92.4301 66.5957H104.209C105.168 66.5957 105.945 67.3727 105.945 68.331C105.945 69.2893 105.168 70.0663 104.209 70.0663Z" fill="white"/>
<path d="M82.421 79.1766H47.4643C46.506 79.1766 45.729 78.3997 45.729 77.4413C45.729 76.483 46.506 75.7061 47.4643 75.7061H82.421C83.3793 75.7061 84.1563 76.483 84.1563 77.4413C84.1563 78.3997 83.3793 79.1766 82.421 79.1766Z" fill="white"/>
<path d="M82.27 70.0663H70.4907C69.5324 70.0663 68.7554 69.2893 68.7554 68.331C68.7554 67.3727 69.5324 66.5957 70.4907 66.5957H82.27C83.2283 66.5957 84.0053 67.3727 84.0053 68.331C84.0053 69.2893 83.2283 70.0663 82.27 70.0663Z" fill="white"/>
<path d="M60.3305 70.0663H48.5512C47.5929 70.0663 46.8159 69.2893 46.8159 68.331C46.8159 67.3727 47.5929 66.5957 48.5512 66.5957H60.3305C61.2888 66.5957 62.0658 67.3727 62.0658 68.331C62.0658 69.2893 61.2888 70.0663 60.3305 70.0663Z" fill="white"/>
</svg>
