<svg width="50" height="50" viewBox="0 0 50 50" fill="none" xmlns="http://www.w3.org/2000/svg">
<path d="M25 50C38.8071 50 50 38.8071 50 25C50 11.1929 38.8071 0 25 0C11.1929 0 0 11.1929 0 25C0 38.8071 11.1929 50 25 50Z" fill="#6CDE07"/>
<path fill-rule="evenodd" clip-rule="evenodd" d="M35.1562 29.9281C35.1562 33.9437 31.8969 36.6094 27.0844 37.0109V40.625H23.7875V36.975C20.5323 36.6079 17.4395 35.3576 14.8438 33.3594L17.2688 30.0375C19.4297 31.7172 21.475 32.8125 23.9391 33.1781V26.0219C18.4063 24.6344 15.8297 22.6266 15.8297 18.5016C15.8297 14.5594 19.05 11.8578 23.7875 11.4922V9.375H27.0844V11.5656C29.6611 11.8518 32.1178 12.8087 34.2094 14.3406L32.0859 17.7719C30.4187 16.5672 28.7141 15.8 26.9328 15.4359V22.3719C32.6937 23.7594 35.1562 25.9859 35.1562 29.9281V29.9281ZM23.9375 21.6047V15.1797C21.5516 15.3625 20.3016 16.6406 20.3016 18.2469C20.3016 19.7781 21.0203 20.7656 23.9391 21.6063L23.9375 21.6047ZM30.6844 30.1828C30.6844 28.5422 29.8875 27.5562 26.9328 26.7156V33.325C29.3203 33.1406 30.6844 31.9359 30.6844 30.1844V30.1828Z" fill="white"/>
</svg>
