<svg width="118" height="118" viewBox="0 0 118 118" fill="none" xmlns="http://www.w3.org/2000/svg">
<path d="M49.4901 111.705C3.51261 85.7513 8.35404 32.6965 10.5107 18.7898C10.8195 16.7952 12.4749 15.3658 14.4881 15.2326C33.6479 13.9618 49.9964 6.89968 53.7139 5.1886C54.2573 4.93713 54.7534 4.93713 55.2951 5.1886C59.011 6.89968 75.3392 13.9618 94.4956 15.2326C96.5088 15.3658 98.1643 16.7952 98.4731 18.7898C100.63 32.6965 105.471 85.7513 59.4936 111.705C56.4359 113.431 52.5496 113.431 49.4901 111.705Z" fill="#2B66FF"/>
<path d="M52.7712 100.963C21.0666 81.6344 19.0483 46.4771 20.4219 28.2622C20.5367 26.73 21.7112 25.515 23.2333 25.3007C35.9958 23.5052 46.8684 19.8028 53.3231 17.2311C54.0976 16.9223 54.9093 16.9223 55.6856 17.2311C62.1335 19.8028 72.9993 23.5052 85.75 25.3007C87.2721 25.515 88.4466 26.73 88.5614 28.2622C89.9333 46.4771 87.9167 81.6411 56.2171 100.963C55.1776 101.596 53.8091 101.596 52.7712 100.963Z" fill="#2B66FF"/>
<path d="M80.3028 57.6695C80.3028 71.6048 68.9966 82.9347 55.0377 82.9347C41.077 82.9347 29.7725 71.6048 29.7725 57.6695C29.7725 43.7105 41.077 32.4043 55.0377 32.4043C68.9966 32.4043 80.3028 43.7105 80.3028 57.6695Z" fill="white"/>
<path d="M108.776 94.2196C108.776 99.1117 106.911 103.563 103.837 106.899C103.124 107.686 102.346 108.408 101.503 109.056C98.3269 111.528 94.3342 113 89.9957 113C84.513 113 79.5737 110.647 76.1515 106.899C73.0786 103.563 71.2139 99.1117 71.2139 94.2196C71.2139 83.8449 79.621 75.4395 89.9957 75.4395C100.369 75.4395 108.776 83.8449 108.776 94.2196Z" fill="black"/>
<path d="M103.837 106.9C103.125 107.686 102.347 108.408 101.503 109.055C98.3256 111.528 94.3346 113 89.9944 113C84.5117 113 79.5741 110.648 76.1519 106.9C77.4732 100.987 82.4968 96.4693 88.663 95.9057C89.1051 95.8601 89.5455 95.8398 89.986 95.8398C93.9128 95.8398 97.4649 97.4244 100.023 99.9928C101.888 101.857 103.246 104.237 103.837 106.9Z" fill="white"/>
<path d="M97.051 87.5924C97.051 91.4855 93.892 94.6445 89.9888 94.6445C86.0975 94.6445 82.9385 91.4855 82.9385 87.5924C82.9385 83.6893 86.0975 80.5303 89.9888 80.5303C93.892 80.5303 97.051 83.6893 97.051 87.5924Z" fill="white"/>
<path d="M51.1824 68.2363C50.34 68.2363 49.4957 67.9137 48.8526 67.2706L41.6044 60.0224C40.3181 58.7361 40.3181 56.6493 41.6044 55.3629C42.8909 54.0766 44.9776 54.0766 46.262 55.3629L51.1824 60.2813L64.1234 47.3422C65.4098 46.0559 67.4967 46.0559 68.783 47.3422C70.0693 48.6285 70.0693 50.7154 68.783 52.0017L53.5121 67.2706C52.8709 67.9137 52.0266 68.2363 51.1824 68.2363Z" fill="black"/>
</svg>
