<svg width="46" height="46" viewBox="0 0 46 46" fill="none" xmlns="http://www.w3.org/2000/svg">
<path d="M42.5922 30.2221L42.1609 28.0659H37.3424L36.5757 30.2068L32.7137 30.2145C34.5523 25.793 36.3948 21.3732 38.2413 16.955C38.5557 16.2056 39.1134 15.8241 39.9357 15.828C40.5643 15.8337 41.5897 15.8337 43.0138 15.8299L46 30.2164L42.5922 30.2221ZM38.4272 25.1123H41.5322L40.3727 19.7073L38.4272 25.1123ZM13.5317 15.8261L17.4148 15.8299L11.4118 30.2241L7.48075 30.2202C6.49223 26.4182 5.516 22.6129 4.55208 18.8046C4.36042 18.0456 3.98092 17.5146 3.25067 17.2636C2.60092 17.0393 1.518 16.6943 0 16.2247V15.8318H6.20425C7.27758 15.8318 7.90433 16.3512 8.10558 17.4169C8.30875 18.4845 8.81858 21.2023 9.63892 25.5704L13.5317 15.8261ZM22.7508 15.8299L19.6803 30.2202L15.985 30.2164L19.0517 15.8261L22.7508 15.8299ZM30.245 15.5635C31.3509 15.5635 32.7443 15.9085 33.5455 16.2247L32.8977 19.209C32.1732 18.9176 30.981 18.5247 29.9786 18.5381C28.5219 18.5631 27.6211 19.1745 27.6211 19.761C27.6211 20.7155 29.1851 21.1966 30.7951 22.2392C32.6332 23.4276 32.8747 24.4951 32.8517 25.6547C32.8267 28.0621 30.7951 30.4368 26.5094 30.4368C24.5544 30.4081 23.8491 30.2432 22.2544 29.6778L22.9291 26.5632C24.5525 27.2436 25.2406 27.4602 26.6282 27.4602C27.899 27.4602 28.9896 26.9466 28.9992 26.0515C29.0068 25.4151 28.6158 25.0989 27.1898 24.3131C25.7638 23.5253 23.7628 22.4347 23.7897 20.2459C23.8222 17.4437 26.4768 15.5635 30.2469 15.5635H30.245Z" fill="#2270A8"/>
</svg>
